<mxfile host="app.diagrams.net" agent="Mozilla/5.0 (Windows NT 10.0; Win64; x64; rv:133.0) Gecko/20100101 Firefox/133.0" version="25.0.1">
  <diagram name="Page-1" id="DJNv7ySO46cEHNU8Rumm">
    <mxGraphModel dx="548" dy="266" grid="1" gridSize="10" guides="1" tooltips="1" connect="1" arrows="1" fold="1" page="1" pageScale="1" pageWidth="850" pageHeight="1100" math="0" shadow="0">
      <root>
        <mxCell id="0" />
        <mxCell id="1" parent="0" />
        <mxCell id="ROxHBCijPqA-K5Wzq0nR-1" value="" style="shape=image;verticalLabelPosition=bottom;labelBackgroundColor=default;verticalAlign=top;aspect=fixed;imageAspect=0;image=data:image/png,iVBORw0KGgoAAAANSUhEUgAAApYAAAGkCAYAAACLqGUxAAAAx3pUWHRSYXcgcHJvZmlsZSB0eXBlIGV4aWYAAHjabVBBDsQgCLz7in2CAio+x7Zusj/Y5+8oNGmbncQZylgEwvh+3uE1QUmC5KqllRIBadKoI9Bo6ItTlMULrUTy7C0funhIUIayGVpM05n3H05NHVG+FNLdje1uNDElfRTyh3h2NHs7vFDzQkxmJC/QbaxYmtbrCNuId6idMGkfNnfy157fUrG9IyPJRIORBjMXa4DnkcAdBi1GU+CKOMPsuKreCRbyb08nwg+ccVoXWPuDggAAAYRpQ0NQSUNDIHByb2ZpbGUAAHicfZE9SMNAHMVfU0WRFgU7iDpkqE52qSKOpYpFsFDaCq06mFz6BU0akhQXR8G14ODHYtXBxVlXB1dBEPwAcXZwUnSREv+XFFrEeHDcj3f3HnfvAKFZZarZEwNUzTLSibiYy6+Kfa8IIIghRDEmMVNPZhaz8Bxf9/Dx9S7Cs7zP/TmCSsFkgE8kjjHdsIg3iGc3LZ3zPnGIlSWF+Jx4yqALEj9yXXb5jXPJYYFnhoxsep44RCyWuljuYlY2VOIZ4rCiapQv5FxWOG9xVqt11r4nf2GgoK1kuE5zHAksIYkURMioo4IqLERo1Ugxkab9uId/1PGnyCWTqwJGjgXUoEJy/OB/8LtbszgddZMCcaD3xbY/JoC+XaDVsO3vY9tunQD+Z+BK6/hrTWDuk/RGRwsfAYPbwMV1R5P3gMsdYORJlwzJkfw0hWIReD+jb8oDw7fAwJrbW3sfpw9AlrpavgEODoHJEmWve7y7v7u3f8+0+/sB5Kxy1I3hh1oAAA12aVRYdFhNTDpjb20uYWRvYmUueG1wAAAAAAA8P3hwYWNrZXQgYmVnaW49Iu+7vyIgaWQ9Ilc1TTBNcENlaGlIenJlU3pOVGN6a2M5ZCI/Pgo8eDp4bXBtZXRhIHhtbG5zOng9ImFkb2JlOm5zOm1ldGEvIiB4OnhtcHRrPSJYTVAgQ29yZSA0LjQuMC1FeGl2MiI+CiA8cmRmOlJERiB4bWxuczpyZGY9Imh0dHA6Ly93d3cudzMub3JnLzE5OTkvMDIvMjItcmRmLXN5bnRheC1ucyMiPgogIDxyZGY6RGVzY3JpcHRpb24gcmRmOmFib3V0PSIiCiAgICB4bWxuczp4bXBNTT0iaHR0cDovL25zLmFkb2JlLmNvbS94YXAvMS4wL21tLyIKICAgIHhtbG5zOnN0RXZ0PSJodHRwOi8vbnMuYWRvYmUuY29tL3hhcC8xLjAvc1R5cGUvUmVzb3VyY2VFdmVudCMiCiAgICB4bWxuczpkYz0iaHR0cDovL3B1cmwub3JnL2RjL2VsZW1lbnRzLzEuMS8iCiAgICB4bWxuczpHSU1QPSJodHRwOi8vd3d3LmdpbXAub3JnL3htcC8iCiAgICB4bWxuczp0aWZmPSJodHRwOi8vbnMuYWRvYmUuY29tL3RpZmYvMS4wLyIKICAgIHhtbG5zOnhtcD0iaHR0cDovL25zLmFkb2JlLmNvbS94YXAvMS4wLyIKICAgeG1wTU06RG9jdW1lbnRJRD0iZ2ltcDpkb2NpZDpnaW1wOjM0N2FhZjM1LWFkZjYtNDU1My1iZDk1LWUyNTgwODVlNDczMSIKICAgeG1wTU06SW5zdGFuY2VJRD0ieG1wLmlpZDpjOGJmNjJkNy1hNDgyLTRiN2MtYmM2NS0xM2E2N2VjMDhiZDMiCiAgIHhtcE1NOk9yaWdpbmFsRG9jdW1lbnRJRD0ieG1wLmRpZDo0M2JmNjdiNy1hOGYyLTQ5MzItOTYzMi01NDYyZjkyMDg4OTgiCiAgIGRjOkZvcm1hdD0iaW1hZ2UvcG5nIgogICBHSU1QOkFQST0iMi4wIgogICBHSU1QOlBsYXRmb3JtPSJXaW5kb3dzIgogICBHSU1QOlRpbWVTdGFtcD0iMTczNDEwODYzODQ0NTE3NSIKICAgR0lNUDpWZXJzaW9uPSIyLjEwLjM2IgogICB0aWZmOk9yaWVudGF0aW9uPSIxIgogICB4bXA6Q3JlYXRvclRvb2w9IkdJTVAgMi4xMCIKICAgeG1wOk1ldGFkYXRhRGF0ZT0iMjAyNDoxMjoxM1QxNzo1MDozOCswMTowMCIKICAgeG1wOk1vZGlmeURhdGU9IjIwMjQ6MTI6MTNUMTc6NTA6MzgrMDE6MDAiPgogICA8eG1wTU06SGlzdG9yeT4KICAgIDxyZGY6U2VxPgogICAgIDxyZGY6bGkKICAgICAgc3RFdnQ6YWN0aW9uPSJzYXZlZCIKICAgICAgc3RFdnQ6Y2hhbmdlZD0iLyIKICAgICAgc3RFdnQ6aW5zdGFuY2VJRD0ieG1wLmlpZDo5OGE0ZTQ2Yy1mM2RkLTQwODQtOWU1Zi1mNDZjYmIxOWQzMGUiCiAgICAgIHN0RXZ0OnNvZnR3YXJlQWdlbnQ9IkdpbXAgMi4xMCAoV2luZG93cykiCiAgICAgIHN0RXZ0OndoZW49IjIwMjQtMTItMTNUMTc6NTA6MzgiLz4KICAgIDwvcmRmOlNlcT4KICAgPC94bXBNTTpIaXN0b3J5PgogIDwvcmRmOkRlc2NyaXB0aW9uPgogPC9yZGY6UkRGPgo8L3g6eG1wbWV0YT4KICAgICAgICAgICAgICAgICAgICAgICAgICAgICAgICAgICAgICAgICAgICAgICAgICAgICAgICAgICAgICAgICAgICAgICAgICAgICAgICAgICAgICAgICAgICAgICAgICAgIAogICAgICAgICAgICAgICAgICAgICAgICAgICAgICAgICAgICAgICAgICAgICAgICAgICAgICAgICAgICAgICAgICAgICAgICAgICAgICAgICAgICAgICAgICAgICAgICAgICAgCiAgICAgICAgICAgICAgICAgICAgICAgICAgICAgICAgICAgICAgICAgICAgICAgICAgICAgICAgICAgICAgICAgICAgICAgICAgICAgICAgICAgICAgICAgICAgICAgICAgICAKICAgICAgICAgICAgICAgICAgICAgICAgICAgICAgICAgICAgICAgICAgICAgICAgICAgICAgICAgICAgICAgICAgICAgICAgICAgICAgICAgICAgICAgICAgICAgICAgICAgIAogICAgICAgICAgICAgICAgICAgICAgICAgICAgICAgICAgICAgICAgICAgICAgICAgICAgICAgICAgICAgICAgICAgICAgICAgICAgICAgICAgICAgICAgICAgICAgICAgICAgCiAgICAgICAgICAgICAgICAgICAgICAgICAgICAgICAgICAgICAgICAgICAgICAgICAgICAgICAgICAgICAgICAgICAgICAgICAgICAgICAgICAgICAgICAgICAgICAgICAgICAKICAgICAgICAgICAgICAgICAgICAgICAgICAgICAgICAgICAgICAgICAgICAgICAgICAgICAgICAgICAgICAgICAgICAgICAgICAgICAgICAgICAgICAgICAgICAgICAgICAgIAogICAgICAgICAgICAgICAgICAgICAgICAgICAgICAgICAgICAgICAgICAgICAgICAgICAgICAgICAgICAgICAgICAgICAgICAgICAgICAgICAgICAgICAgICAgICAgICAgICAgCiAgICAgICAgICAgICAgICAgICAgICAgICAgICAgICAgICAgICAgICAgICAgICAgICAgICAgICAgICAgICAgICAgICAgICAgICAgICAgICAgICAgICAgICAgICAgICAgICAgICAKICAgICAgICAgICAgICAgICAgICAgICAgICAgICAgICAgICAgICAgICAgICAgICAgICAgICAgICAgICAgICAgICAgICAgICAgICAgICAgICAgICAgICAgICAgICAgICAgICAgIAogICAgICAgICAgICAgICAgICAgICAgICAgICAgICAgICAgICAgICAgICAgICAgICAgICAgICAgICAgICAgICAgICAgICAgICAgICAgICAgICAgICAgICAgICAgICAgICAgICAgCiAgICAgICAgICAgICAgICAgICAgICAgICAgICAgICAgICAgICAgICAgICAgICAgICAgICAgICAgICAgICAgICAgICAgICAgICAgICAgICAgICAgICAgICAgICAgICAgICAgICAKICAgICAgICAgICAgICAgICAgICAgICAgICAgICAgICAgICAgICAgICAgICAgICAgICAgICAgICAgICAgICAgICAgICAgICAgICAgICAgICAgICAgICAgICAgICAgICAgICAgIAogICAgICAgICAgICAgICAgICAgICAgICAgICAgICAgICAgICAgICAgICAgICAgICAgICAgICAgICAgICAgICAgICAgICAgICAgICAgICAgICAgICAgICAgICAgICAgICAgICAgCiAgICAgICAgICAgICAgICAgICAgICAgICAgICAgICAgICAgICAgICAgICAgICAgICAgICAgICAgICAgICAgICAgICAgICAgICAgICAgICAgICAgICAgICAgICAgICAgICAgICAKICAgICAgICAgICAgICAgICAgICAgICAgICAgICAgICAgICAgICAgICAgICAgICAgICAgICAgICAgICAgICAgICAgICAgICAgICAgICAgICAgICAgICAgICAgICAgICAgICAgIAogICAgICAgICAgICAgICAgICAgICAgICAgICAgICAgICAgICAgICAgICAgICAgICAgICAgICAgICAgICAgICAgICAgICAgICAgICAgICAgICAgICAgICAgICAgICAgICAgICAgCiAgICAgICAgICAgICAgICAgICAgICAgICAgICAgICAgICAgICAgICAgICAgICAgICAgICAgICAgICAgICAgICAgICAgICAgICAgICAgICAgICAgICAgICAgICAgICAgICAgICAKICAgICAgICAgICAgICAgICAgICAgICAgICAgICAgICAgICAgICAgICAgICAgICAgICAgICAgICAgICAgICAgICAgICAgICAgICAgICAgICAgICAgICAgICAgICAgICAgICAgIAogICAgICAgICAgICAgICAgICAgICAgICAgICAgICAgICAgICAgICAgICAgICAgICAgICAgICAgICAgICAgICAgICAgICAgICAgICAgICAgICAgICAgICAgICAgICAgICAgICAgCiAgICAgICAgICAgICAgICAgICAgICAgICAgIAo8P3hwYWNrZXQgZW5kPSJ3Ij8+KLrzHAAAAAZiS0dEAP8A/wD/oL2nkwAAAAlwSFlzAAAOwwAADsMBx2+oZAAAAAd0SU1FB+gMDRAyJiICdG8AACAASURBVHja7L1LbFtXlv776f2iRFESSZGH5HlYj8ROO4UO4BrcUU8SIBcIbiGwu1NAUEAQD+4gQUYNtOEuFOoK6WmQDO4gQYBCgHKXjaAuAvwDJJMaNfAvdycVqxw7cpLzIHlIiSIpvt+POzik3rIPJT4OD9cP8MCmaIlL++z97bW+vfZQvV6vo8cEg0HMzMzAZrNhkInFYpiYmIDFYhnYGNRqNfz8889YWFjA4uLiQI+HcDgMi8WC2dnZgY1BoVCAoshYXFzC0tLSQI8HURSxtLSEubm5gY5DJBLB7OwspqamQBCE8RjqpbCMxWIQRRHlcgmVShV2+xJ4XsDk5ORA/RJyuRxEUUQsFkOtVoXP5wPH8RgZGRmoOIRCIUiSiLGxMZTLZczP28DzPKanpwcqDolEAqIoIpvNolqtgmEY8DyP0dHRgYqDLMuQJBFWqxWlUgkzMxYIgoCZmZmBisPOzg4kSUK9XkOpVMby8jIEQcDY2NhAxSGdTkMURSQSCVQqFQiCAJ7naRUnCBKWQDabhSRJyGTScLtdWFxcAAAEgypCoTB4XgDHcaYPfr1ehyRJUBQFDOMGw7hQLpcRDIaQSCQhCALcbrfp47C3twdRFAHUwTCu/QydqoagqmFwHAeO4zA0NGTqOBQKBUiShHg8BoZxw25fQqVSgaqGEI3GIQgCPB7PQAgpURQxMzMNhnHtbzRDoTBUNQyv1wue5zE8PGzqOKRSKUiSiGKxCIZxY37eimq1ClUNIRKJQhAEeL1e04+HSqUCURSxvb0NhnFhedmJYrGIYDCEbDYLnhewvLxMqzlBDKKwrNVqkCQJgUAADOOC2+06dXFV1TCy2RwEQYDT6TRl4MPhMERRxNzcLDweN8bHx4/tzjNQ1RCAIQiCYEqbgCakRMTje2AYF+z2k6XOYrEIVQ0jnc5AEMy7gGjZOQkulxMeD3NCRGcyWahqGLVaFTwvmNImkEql9isYbrcL8/PWE19TKpWhqiqSyRR43pwbr3K5DEmSsLOzDYZxw+l0nPiaXC6HYDCMcrkMQRBMaxMIBoMNC8AiGMaN0dGjVZxkMgVVDWFsbBw8z8NqtdKqThCDIiybZU6rdQ4Mw2B8/OllnEQiCVUNY2JiHDwvmMZXpJU5f0a9XoPb7cbc3NP9c7u7UYRCYdhsNlPZBJplTrfbBY+HeebXawtIGKOjoxAEwTQLiFbmFDE9PQWGcT/z9xuLxaGqIczNWU1jEyiVSpAkCZFIBAzjOlVIHSedTkNVwxgaGgLPm2fjFQgEIEki7PYlMIz7mXaYeHwPqhrGzMyMqWwC0WgUkiRidHQUDON65ufa2YlAVcNwOBzgef7ERp0gCBMJy7PKnPoX3ghUNQSncxk8z/etr+igzBk/Mzv39J27OWwCZ5U59RKJ7EJVQ7Db+3sBOShzlsAwp2fnnoZZbAJ+vx+SJMHhsDeEVGvl7d3dKFQ1hIWFRfA837cbr2g0ClHU/MWakGptw2AWm8BhmxTDuLCwsKD7vbVaDcFgCJHI7sDYBAhioISlnjKnXqrVKoLBEKLRWF/6zA7KnMvweNznFgH9bBNIJpOQJAnlsiakLpJxPFhAIuB5AT6fr2/ioKfMqZdisQRVDfWlTWB3dxeiKGJiYhwM47pQ5rVeryMYDCEc3oYgCGBZtm/ikMlkIEkSstlsQ0idP/Oq2QRCSCaTfWcT0GOT0ksul4OqhlEqmdsmQBADJSxbLXPq383moKohVCpVCILxfWYH2Tl9ZU699JNN4DxlTv0LSB6qGkKxWIIgCLDb7YYeD4FAAKIowuHQV+bUSyql2QRGRoxvE9CElIhcLgeGcbW1hJ3PF6CqIeTzBQiCAIfDYdg4VKtVyLKEYDAIhnHD5WrfpqDfbAKhUAiiKGJ+3gqGcT/TJqUXs9oECGKghOXRMqcbk5MTHfmhY7E4QqEwLJZZCIJgOJ9Z8xBCqXS+Mqf+eBvbJnC4zOnxuDtWnjtYQKbB84Lh+oA2y5zj42MXzs49Dc0mEIbdbjecTaBarUKSJKiqCoZxtVVIndx4JRobr0kIgmC4PqCqqkKSRNhs82AYd8eeW80mEMbCwoIhbQJHbVJuzM525rkNhbahqqGB6SZAEKYQlu0sc7Y2YYShqiH4fCx4nu+5z6xcLkMUxY5k5562YDdtAjzPG8JXdLTM6cb0dHcaGYfD2gLCMB7wfO/7gDazc9ls7sJlTr00bQI7OxEIgjFsAqqqQhRFLCzYGkKqO/04t7d3oKphuFwuQ/QBjcfjkCQRwFDDb975DZARbQL5fB6SJCGR0GxS3ShVD2IbN4LoS2HZyTJnKz9DMBhCKpWGIAhwuVw9CWSnypx6OWwT4Hm+J76iTCYDURSRz7e/zNnKAqKqIezt9W4BOcjOtb/MqRcj2ATi8ThEUcTw8BAYxg2LpfulSCP0Ac3n8xBFEclksiGkum/hKRQKCAZ7bxOQZRmiKIJh2muT0kvTJmDmNm4E0bfCsltlTr2kUtqEMTw8DEEQMD8/35Xvu7u7C0mSOl7m1MthmwDP813xFVUqFUiShFAo1PEyp/4FpDd9QLtV5tTL3p5mE5ie7p5NIJfLQZIkpFKakDKCFzqbzSIY7H4fUEmSIEkSGMYNj6f3WTLNnx3quk1ge3sbkiRiZmamozYp/fO2sW0CBDFQwrJXZU69NH1mS0uL4HkBExOdmcB6UeZshW7ZBA6XOT0et+GuHYxGY1DVUMf7gB7NzrkM5/Pshk3g6E1SLjCM8cqN3eoDur29DVEUYbFY4PG4OjYPnf/n02wCzeshO/XcJpNJiKKISqXSsEkZ56BhP3cTIAhTCMujZU43bLZ5w34obcJQsb29A55v74TRzUMIF6WTNoFYLAZJEjE8PNyzMmcrdKoPqBHKnHo5sAkkwPMCGKZ9pchwOAxJEjE7OwuGcWNiwtj9RTvVBzSRSECSJFSrFbjdxhJSx6lUqlBVtSM2gaZNanc3AoZxw+EwbscGrY1bCLlcHoJwydDdBAjCFMLSiGXOVhZ9VQ23zVd0kJ0zRplTL5pNIITh4ZEL2wSOljnd+/e89wPt7ANar9chyzJkWWrc894/hwEObAIAzwstNaE+TUiJooharQaGcT3zJikj0c4+oMViEZIkIRqNgmFchhZSx2naBKrV9rRx8/v9EEURTqfDEDYp/WO5NzYBghgoYRkMBiFJkmHLnHrZ29Paj0xNTYLnW58wjF7m1MvurmYTWFxs3SbQD2XO1haQ8/cB1bJzEmZnLWAY45U59dK0CczP2yAIrdkENCElIhaLgWHcF7oAofcbr4v1AVUUBZIk9Z2QOo5mEwhjdvZ8bdyMbpPSS7dsAgQxUMKy38qcrU0YIbhcbl3tRw5n59xuY5c5WxGIrdoEwuEwRFHE3NwsPB63ae7hbbUP6OEyp5adM8f99cGgClUNQxD02QQURYEoinC5nPB4mL69TvI4B/7sJQiC8MxxHolEIIoipqYmwTAuTE1NmSIOTZsAy+rzZ6fTaUiS1Bc2Kb100iZAEAMlLHO5HERRRDqd6rsyp/4Jo4JgMIR4fA+CcLrP7KDMKfd9du4s9NgE+rnMqRc9fUCb2bloNNZ3ZU69FApFqGroqTaBnZ0dSJKIqSntJqmpKfOdpNXTBzSdTkMURRSLBbjdLlMIqZNjvmkTSIPnT/dnN21S4XAIDOPG8rLTdHHIZrNQ1XDf3PZGEIYRlmYqc+olk8lCVUOo1eoQhAOfWb8dQrgop9kEtHveJcTj/V/m1L+ANPuAVsDzB/cLa2VOEcvL5srOnUUyqdkExsbGIQiaTSCVSkGSRBSLRTCMu2M3SRmJ0/qANu95397eBsO4TCmkjnPYJsDz/L4/W7NJiVhcXADDuE1fLr6oTYAgBkpYhkKhuhnLnHqJRmMIhbTr32q1GrTrxcxT5tRL0yYwOTmFTCYDt3t5IITUaQtIKKQtpOVyuXE9qXnKnHpp2gTGxsZRKBTg83l6cgGCMTZe2ga0VCrBbl8EwzAYHR0ZqDg0bQIzMzMol0sYHR2Dx+MauPu3VVVr46bXJkAQAyks//73v9dHR0fg9TIDHYj79/8HNpsNq6uXBjYGlUoF3377HXieG4gs5dP461//By6XEz6fd2BjUK1W8d///S2uXHlu4E/I/u///d/geXYgxXWTWq2G//7vb7C87ATL+gY2DqVSCX//+yOsra1dqJMAQZiVYQB9e3qvnYyPjxu651w3GB0dxdjY2MBlrc+KRb+e/m8XIyMjGB0dwfDwyMCPh5GRkYHLWp9YLIaHMTo6ZkqvdatrxSDYQQjiQsKSIIjTqFMIKA4UB4IgiFaEJXlEmgzhnNem0wJqxtFAjwVB4+HUuYGmSZC3kiCeJixJSBDEGUsoPRYAaAElaDwQBNGisKQFlDISBEHQRoNoZTzQgCCIM4UlQdACemKrQSHQRgOFgJ4JgiAIEpYEQYKKRBXR5u0W7bcIgiBhSRDEBaQEhYCgTQZBECQsCYJog6wkXUlxIAiCIGFJEEQ7oAwVccqooBAQBHG2sKR+XARBECSo9EDLBUEQzxSWFIJDywalZ0CeOhISFAfi6fMkxWBoiC7UIIhnCEt6QAgSErSAnraAUgwIgiCIFoUlLaAEcUJSUQgI2mjQc0Gbb4JoVVhSRoI4smwM0QLajANBED0QVF++DYvFCovlbXxFASeI/hOWFAKCIJ4qJWijAcrUdYevblphuQF8nkkik/kEr9B4IIi+Y5RCQBAEQfQa+YNreP3BBh5m3gFH4SCIvqXDGUsF/+u/rLj5l+aft/FtK2/fL4lof976st/DreDDa619jq9uWg/FoL9LQ/IH1w59lmv4UGw9dvvvv/YRZFPEofXPYqYxcfR32+JnMcv8cOxztBoHc4wHBV/8cQs3fncBUSl+hJcOxfGlDxRa4QmiN8KyUyl9Bf/rv67i/8MGfv9PSXz8T/fwS9zD//tfHyGsd7LdL4kkkbl7HXdvtCpG9NPxfp7iR3jJchW3HrW2YLyOe9rnzyTx+Rv38HofCyruvfv7n+XhBnDrqt5FUMGH167iD7/ebLx/E+/jNl64+XXfx6H5WV7XuQh2f0x0vuT31c2r+MOL17Heqhjr4vzQadY3Ng+NCf0lYPPMEVv47tE6fvHk7fNtPsWP8NLVz/CbzUYMNzeA21dNkIwgiL4Ulh0i9gX+WgJcttfgAgC8jP/TuQ6UPsO3MR0T5p/vYX3j3w8m2Fc/wedvbOEPX/TjLlTBh//yGX6zuYn3L+t9z9f40511vP9vL+//yysf38ONR5/hC7H/Bx732pv6hYT4Bf7w6Dref49t/AOLd/9zA+t37pogW8fitV+vD+yYkD+4htdxD9/824utiVETzQ/yk028uMae4529Gg8dMN2KW3iALdz6/sYhkbyle/Mpf/EZtt7YwLtC4x+Ed/D5xjru/rlzm0/qY0kQ3RaWmQcIA/DNnGfCVLD1ACcm2/Ur69j6fquDE0XnxMO79+8fTHq6J9qrWD/ynnX84vIWvvuh/weethDc0JeZ+eEBti6/eFSICut4EZvY6rcF9Dhfvo0Xbl89JJqNOCbqnfvsf3wTDz9+uS/mh07FYev7Ldy9cY6Sfo/GQ+fmyev4/ONjIhn38Kcv9cVw/crRDRq3dhV4sNWR7C11jSCIXgjLBv7seTIILNZfBB48UZ45efSdkNDLqcKpUS56rtPfvMNx+PJtvPD9BjJ6BcVzL2L90QNsPXNR7ZcF9Gu81Sz33bgH6BXYPR0TbUb8CC/dAD6/fx5PXa/mh87wysfJgzL43eu4e0OnuOzJeOiQojpzo6jvs5y2qZCfbAIvrtNBIILotrDU+hZ2YAVlb+CXAMJ7XzQ8lQq+3dsCxt/EPy5qX6KZzk8vdbzyq+vYun39wGMjfoRbd9bxm9dY80S/YTY/3WT+Mv75jS3c+pcDv5T8wW3cvfwmXhM6+UN1civeOKTx5xsnRKV2oOUMT5XwGn5z+R5eP+Sp/Oo/buvPeBqOl/Hpvp/uHm7cuQ5L87MZcky0H/mLz7CFe3i9KbCv3t7/uyaqGuL7DB9tt+eHrvV3ffUTPDxcwjXYeOhcpu5l/HYDT/0sT1svuNfexPqd64cE+df4/e0t3PjVyyAIosvCspOL59tXN+Aq3cZv/2LFzb80DvL8H+80PJdNzihnvvpJ44BHc+H5DL/ZbLGcbDi28N0ph3fOKt+98nHjkEpj8X3hj2/i4f3Ot+Lo1AL61c3G4aU71w8M+keEw1klPBbv3m8IsMb7Xsc9/RlPwwnsYyLz7vUTJTujjIlOCYmjB5i0wxbruI7PM0l8+uqhLzyrlGnK+eEpM4fB5ohOjYnPXzz0WW5fPSWjfcZ6IbyDbxrZXm2OuA7cPTaWCILoCkOPHz+qT0yMw+Gwd/+7ix/hpasP8L4BGuFubj6E3b4El2u5q9/3q5tW3LqyiW/eM0Ym9sGDv8Pr9WBhwdbl7/w13rLcxi8MIg7+9rdNeDxu2O1LHf9e8gfXjlgDjDQmvv32O6ysXMLc3GzX54Ljcekl33zzNwgCD5ttvgvPwVFRZKTx8Le/PYDX68HS0uJArxey7Mf8vA0Mw5CKIIhjjPbyBoGv/uM2sLHZp+XM9kyUt+5cx/sZduAHovzBbdx9YwOfCoP1+3/p6m1sXd7Aw/sv05g4JrB+fxt4f3OASplfvg3LjXtY39jEN6/SHEHrBUH0rbDs3ST6Ou4h896gTpjNFkT3aaIUP8Lrf3zzQFyZXDC9ZbmOuwDQKP2+QmNCK2VmDomIm1rW7t0B2Gh8ddOK1+/QeKD1giDMwdDjx4/rExNjvSmFG4jNze9hty92vRRuNHpXCjcW3SyFG5mulcINTvdK4UZ/LnpYCjcQsuyH1ToPj8dDKoIgjjFMISAIgiD0Q43BCYIgYalvuqT5kiCIUxkiQUXz5MFooAbpBHG2sByiJ4R24sQZCyiNB3ouCIIgiJaEJS2gBAmJk9B+izj+TNA0CfSyiwhBEH0kLAniyBJKCyhBkKAiCIIgYUkQRLsFFW00CIIgCBKWxLmFBEEQBEHzJEGQsLzINEHzBEEQBKETOptAEE8RlrVabeADUSyWUCqVBj4O1WoFxSLFoVAooFgsDnwcyuUy8vn8wMehUqnQPAmgVCqiXC4PfBzy+QKNB4I4g5F//dd//Z0sKxgZGYHFYhm4AKRSKTx+vIVKpYpEIolcLoeFBRsGrQ1TqVTCjz/+jHQ6jXh8D9lsbiBvnYlGY3j06AeMjY0hFttDOp3BwoINw8ODldzPZLLY2voRpVIZ0WgMmUx2IMdDoVDE998/RqFQxN7eHorFIhYWFgYuDnt7CTx+/AOAIUSjMRQKRSwuDl4c8vk8njz5CclkEqlUEmNj45ibmyMlQRCHGKrX6/V0Og1RFFEsFsAwLszPm//asmKxCElSkE5nwHE+2O1LKJfL8PsD2N2Nwe1ehs/nHYhB4PcHoaoqGIaB18sgn89DUQJIpdJYXnaCZc0fh0wmA1GUUavVwHEs5uetqFQq8PuDiEQiWF5eBsf5TB+HSqUCSVIQj++BZb1YXnYiny/A7w8gkUjA6XSA4wbjvuatrSeIxfbgci3D6/Ugl8tBUfwoFIrweNwDcf1rLpeHJMkoFovgOB8WFhZQKBTh9/uRSCTh8TBwu12mj0OtVocsy9jZ2QXLeuF2u5DJZBAMhgHUwfPCQG44COJMYdn8SyQSgSiKmJqaBMO4MTU1acoPrSh+qGoYXq8HHo/7RHYync5AlhWUSmXwPGvae7NjsTgkSYHFMgOO82Fy8ujvOx7fgywrAACOM2ccyuUKJEnG3l4CHOeD0+k4RXRmIcsKCgVtcTXrPcmqGkYgEITT6YDP58HIyMiR1xOJBGTZj2q1CpY1bxwCgSDC4W1YLBawrBczMzNHXt/djUKSFIyNjWF19RIslhkTCqkaJElBJHIgpI6TTCYhSQrq9TouXRJMe5/8zk4EihKAzTYPlvVifHz8yOvRaAyqGsL8vA08z2NqaoqUBUHC8qTwUiCKIlwuJzwexjRl4Wg0BllWYLHMguO8J4TUcZoLyNTUJNbWVjAxMWGKOGQy2UZ2rrqfnXsaodB2I24WXL68jtHRUVPEIRgMIRgMYnl5GV4vc0JInTV+JibGsbq68szx0y/s7SUgSTImJibBcT7MzEw/9eu3t3cgSQpmZqbx3HNrJxba/o3DXkMoARzne2qpt16vIxhU4fcHMD9vw5Urz5lMSPmxsLAAlvVibGzsmV/fnB/W1lYxNmaO+SGZTEGSZIyMjIDjfJidnX3GfKJCVcMQBAEcx5G6IEhYHqdYLEIURcTjMTCMu6/9VQdlzjo4zvdMIXXahKEoATiddqysXOrbOGhlThnx+NnZubPQbAJBRCK7WFpaxOpq/8ahmYmdnNSE1PT0dEvvV9UQZNmPpaVFrK+v9m0cjpY5W8tIVyoVBAIqwuFtLC4u9HUcKpUKHj3aQiaTBsexLZV2zWQTOCqkWMzO6vfcV6vVxngIw+l0QhD6V1hpa5+MbDYLlvW1tPYVi0UEgyFkszkIggCn00kqgyBheZxEIgFR/Bn1eh1ut6uvyh3lchmSpCCRSIBlWxNSxykUClCUAJLJVMNX1F/+Kq3MGYDT6Ty1zKmXdDoDRfEjn8+DYdx95a/K5XIQRRmlUrnhFzt/ab9YLMLvD2BvLwGGcYFhmL6Jw9Eyp+9CYzmTyUJR/Mhmc3C7XfB43H31XPz448+IRmNwOJbg9XoxPj52rv/nqE3Ai6Wl/tmIFwpFSJImpDiOvZDFIZfLQZa18cCyXjgc9r4aD02blM/ngcdz/mc6mUxCVcMYGxuHIAh0wIcgYXka4XAYovgzrNY5MIzb8OWvYFBFMKjqLnPqX0CSkCQZALCycqmlXX0vOFzm5PnWs3NnsbsbhSwrGB0dw8oK/8wyUS+pVquQZQW7u1GwrK+thy60LI+Cer0GQeBhtRp7AWm1zKmXpl93eHgYly5xsFqtho5DKBSGqoYwNTUFlvW2bfw2bQLT09N4/nnj2wRk2Y9QKASfz3shIXWceHwPkiRjdHQUa2srhvcdNm0us7OzYFkfJicn2va8qWoYDocDgiC07XkjCFMIy2amQ5Zl+P1+MIzLkNkqbULTfJHnKXPqX0A0X9Hc3CzW1lYM5zvM5fKN7FyxowdvgkEVsuyHzTaPK1eeN9x42N7egaIEsLS0CJ/P2zH/VySyC0mSGz6zFcMtIMlkCqKoLfSaX6wzGyLNJqDAarXihRcuG248pNNp/PSTiEqlut8Not30g01A2xj6YbVqQqpT/vFQKAxZ9mNhwYa1tRXDte1KpzOQJM0mxfO+jmyIqtUqVDWESCQKQRDg9Q5GtxGChGVLZLNZSJKETCYNhnEZos1CO8ucrUwY2gnSHSwvO8HzvfdXaWVOGZFIFBzn60pLlEKhAL8/iHh8D06nHTzP9TwOzczy2NgYOM7XlR6ttVoNgYAKVQ3B6XTg0iW+53FoZ5lTL5pNIIhYLAa73W6IOADAw4ePkUho/uJ2ZufO4qhNYLkr31OPkBJFCYDW6aEbGfZSSWvjFovF4Ha74PV6eh6HdtqkWlmjgsEwyuUyBEHoK7sEQXRcWDaJRqOQJBGjo6NgGPczT5N2StxJkoJotP1lzlaEtixrvsNWzd7tZHt7B35/AIuLC43sXHezZolEErLsR6VSgc/nhcPR/TgUCgWIooxcLt+z1kC5XB6KoiCTycHn83Rl0ToNWVYQCm03ypzd9z4mkykoih/FYqmncRBFGZHILhYXbfB6vW0rc+rlwCYwhEuX+J7YBEqlMiRJRjKZAsf5euJ9TKfTkCQFlUoFPM/BZutNv+RgUEUgoMLt1vqTdjuLGo/vQVVDmJmxQBCEE+2sCGKghWWTQCAASRJhty+BYdxt8zM+i3B4G35/EHb7Irxeb8/bXDQXkPHxMayurnStD2gymYQoKh0vc+oXuJpNYGpqEuvrq11py1Ov1yHLfoTD22BZLxim94dImraM0dERrK5e6pgt4zjdKnPqRbMJKJiYmMDaWvfisLMTQSAQbGSt2Z77X5vdBObm5nDlynNdEzSBgOY375WQOm18aj7UKayurmBiYryLz6OMqakpcByL6ene+j41n28YXq8XPM8P3O1eBAnLZ6KVFiTs7OyAYVwdzU70oszZ6oQhywoWFxewtrbasT6ghUKxkZ3rXplTL832I6FQqOEzW+uwkNJ8fZqQMtaBiXBY6wNqs81jbW21YwuIdoOWAqBuCCF1mKZNIBhUsbBgw/PPr3fse+VyOTx58jOKxQI4ju1ZpvQ0isXSflnYbl/CpUtCRze6sqwdJOI4n6EO0DT7gAYCQTgcDqysdC4O2WwOkiTvX3jRq0zpaZRKZaiqimQyBZ4X4Hb3V1cFguiosGySSqUgiiLK5RIYxtXWso8Rypz6J4wSFCWAeDwOt9sNr7e9/qpmmdMo2bmnTeqK4kcmk9m/Gq99Yy0NSZIxNDQEjvMZuqVHsw/o7m607deFGqHMqV/05eH3a227OnFd6OPHW4jH9+DxaNeTGjULlEqlIMt+lEoleDwMlpedbXzmtAsQKpUKOM5YQuo4+XwBiuJHKpWG18u01cp0YJOKgWW9hr6CM51OQ1XDGBoaAs8LsNnMedsbQcLyQuzs7EAURczMTINh3BfyNRmxzNma+FFQrVYgCHzLzdmPY7QyZ6vZk6Gh4Ya/6vxxKJVKEEUZ6XQaLOvrq1557b4uNBAIIhgMNQ5FMH1TTtNuufGjXtdO4170AKCi+LG9HYHVOgefz9vzMqdeDmwC41hbW7mQTaBSqUKWZcRicbCsr61itdMctHEbwuqqcOEq1GGblM/n7ZvbwnZ3o1DVMBYWFsDzvGlu9yJIWLYVWZYhiiIYxnWuU5FGL3O2soA0y1Jrayst97czcpmzFUKhMCRJa9N0NOB6QgAAIABJREFU5crzLQshvz8IVVXBMFpGql+vG22O68nJ810XauQyZ6sCQLuv/nzXhUajMSiKH8PDw4bPzp1FrVbbP1CysDCP559/7lzPVSAQhN1uh8/n6dtrV7e3dxo+1Fmsra1idLQ1v/5RmxTbl/e4azaBEMLhbQiCAJbt39ucCBKWHSOfz0OSJCQSe2AYt64S9tEyJ9tXN/48bcJoZpgcDrsuX1GpVIIkKX1R5tRLqVTaLwvb7Uu64tA8GGWxzIBlfV07GNVpmteFOhx2Xddk9lOZUy/lchmBgIqdnR0sLi5ibW1F1xj64Ycn+22UjFzm1Mt5bALaBQhaxlO7573/TxhrfUCD2N6OwOVy6romM58vQJJk5PN5cBz71Hve+4VCoYBgMIR8vgBBEOBwOEAQJCyPEY/HIUkiAIBh3KeeXu7nMmcrQluWA8hk0vB6PWeWrJoiVMv2ejA8PGSqOKRSaSiKH4VCER4PA5frZBwymSwkSUa1WgXHsRe2Ehh1ATm4LvT0azL7ucypl+Z1oblc/sw4AMDW1o+IxeJwuZzwevs3O3e2WNyDLPtRq9XBcb5TRVI+r12AUCgUTCOkTttEybKCfL7YaOO2eOpmXZYVhMM7fWeT0ksikYSqhjAxMQlBEAx9yxlBdF1YNlFVFZIkwmabB8O49/st+v0BqGqo78uc+hcQ7brF4eFhrK6u7PcBNUuZUy+aTcDfaNN0CTMzM6hUKpAkBfH4HljWa0ohddoCIkma3eHwdaGhUBh+fxBOp92UQuo40Whsv03TysrBQhoMqgiFwpiZ0bLW/VjmbIVmN4GZmRk8//xzGBsbbdx+pmBnZxcs6zXk7WftRqtWyBgf13yoTd9h004yP6/ZpIx+feZF2d7egaqG4XK5wPO86ecBgoRly2gn9iSoahBWqxXJZMp0ZU79C8gOZFkr89brQLVqnjKnXjSbgNZ+ZHJyAuVyBU6nAz6fp2t9UY3Czk4EkqRgcnICtVoNExMTpilztkLzutCZmRnU67XGtXvmzM6dxWGbwPT0NIrFEmy2ebCs1/RC6mRCIgRF8WN2dg7VahXDw+axSemlUqlCVVVEo3EIggCPxwOCIGF5jEwmg2+//RZOp90QV571bsKo4H/+51ssLS1iZeXSwMYhn8/ju+/+jpUVoWc3GBmBarWK+/f/Bwzjbmtron6jUCjgb397oNt7aVYymQw2N7/Hygo/0F67YrGEb775GxjG3fZWVf1ENpvFo0c/4MqVF2C320EQRqLnvUksFgusVuvAX2s1OjqK8fEJzM/PD3QcpqamMD4+NnBZ6+OMjIxgbGzM0L05u8Hk5CQmJiYGKkt51jw5Pj428PPkxMQ4xsbGTOm1boWZmZmBXysIEpaEDkxuKSVaHxEUAuIIva0vEQRB9ImwJEFF0AJKELTRoPWCIEhYEgRBEARBEAQJS4IgCKIfoZLG0JDWTYMgSFie/ojQb4Kg8UCQkKA4EARBwpIgCBISRMe3W7TfIgiChCVBQoLiQFxYUtFhLuLo7EDjAVTZIUhYkpCgCZNobdkYovFAEARBkLAkaAdKEG0V2ARtPGmeJAgSli0tHDRhEiQkCIIgCIKEJUG0HdpoEARBEAQJS4IgCIIgurIBpx04QcLyDKj2SRAEQfMkoXs00HAgSFgSBEEQRDugTB1BkLAkCKJFKCVBQoLi0DsUfHjNCovFipc+UCgcBKGTUQoBQQsoxcHwUaAwEM3tVje6iIgf4aWrt4GNTWTeY2njSRAtMDgN0pW3cfMv1v0/v33U2g5U/uAaLDe/7sICSito5/kab1m0TITFYj3H7/VrvGW5hg/FfhdUx+JgseKtL1t6qPDhtVbfQwuocTnI0DX/tJap69Z46ML8cPU2XrybxDeGFZUEQcLyGTvQDi8cytu4Kd7DL4UkPv6nJH7vXEd45yo+0TVnapPlC7e3urIT7xpfvg3LtY8gD9yiAQAv49NMEplMEpnMPdy4c13/Avrl27BYruOuGTZbR+KQRObuddy98Ta+0vNW8SO8ZLmKW49MNiN++fa5Sp/d2Hh2Z364js8PjQndwspM4+HLu7h7eQO/fbWb8ytBkLBs/xLawTX02+g9ANfxj4050nV5A78E8NfosxcC+YPr+MOvN/FwY900v/SvblphuXFP/xvMKiIa4uqf32ghk3ED+DxzDze6s+XqbihevaHzcyn48F8+w282N/H+ZRMNBfEjvHQDuPFGK2/q3saz0/MksIXv8CJan+nMNR7kJ5vAi8AX185X1Wh5fiUIEpb9hoJwAcD4i3Cd493ce/fNVQ758m28jnvI3L1u4EVjqIueuq/xpzvr+M1ren7HL+PTzCd4xaTPyYfXruPBxr/r+Hws3r1/H+8KZvr8X+Otq5/hN5uf4J9bESFm2niKW3jw6DZeaIop3Rk3c42Hre+3gDufAf/ZyNxubmBdb1Wj5fn1ohsNsk4RJCx7R+kBwvT7Bl79BJmPX27hDWYUEYfF1G38YtOYn68bpU/5g2uNrMxV3HqkV2CbU1TjbuvjwFQbT+EdfLNfBt/E+7iNFwa0nLu+ce9gLAjv4PONdWz98Ytnx6Ll+ZUgSFj2ISz+0bYO4B6+bW44lbv4K4BfLjUmAPEjvEQtJQaLhlcS/3lcTDQOtHThoJYR4N67v++ne7gB3Lp6cCjpq5tWWCw6PZd9zFc3r+IPv97Ep6/SY3F0Q3kPNx59hi8GbDysX1nXspbHeXEdHA0MgiBhCQCuy/fxf88BfxUbp8IbB3nePpZoOHUy0fGaORbXwVg09jcSN+4B2MKtq00f1bFT3g+2zs5OiFt40IUfs9tVLu69e3j/8ha+++Hwv25i68zT71v4ru99t1/jT3eArdtX9/10rzf/3szW0cbTYONhCJ082Ma9t4Ebd64fOqj4NX5/ews3fkWJCILQw8D0sfzHl5L4+KwXhXfw/hu3cevK2T6pVz5OImOieMhPNgG8eOqi8YrQWxHR8RKw8A6+ybxzxosv47cb67j7/VOyE099fz+zhe8ereMXzzXG/L9tYP3OA6yfWR7WTpX3N9pn+PTYJuvWlc0TJW5tc8n2eOPZvd2G/MFt3L38Jn4rDNJ4aHyOzQ28dNUKS+Nf1jc28c2r0D0eTp9fCYKE5eAgfoRbd67j/czg+Mu49+4j894h4Twwi8az+Bq/vw28v2kUn1R3hMRXN7VM3Y27yX1rwFf/oTWINsJhpZ4eUhi4jaeCD69dxa1H1/F55p39DZaxxkMPN586xsPx+bVDW3BauwkSlmc+HkO9fECap57vG2DCHOrZDSNGWjS6KahOCqzrwCFx1dvnorMLqPzBtf02Oesbm8gc3lg1T7ca4GDKUK/Xz0HZeDZum9lqjof3jDkeKBFhkOeCIIwsLHspJJqnngc6DrRo7PPKx0mTthM6yVOzKq9+gsyrNAaMtfHsME/L0g3weDBuIoIgSFg+XU5RO67e7UBp0SCIPth4DtE8SePh2LpJA4IwHsMUAsKI0HypCQmCIAyyAScIgoQlQfS5vKYQEARBECQsCYIgiPZCmbrGdov2WwRBwpIgCIIgCIIgYdmlnThtxQmCIAg96wVANhGCIGFJEK0sHRSCfWgBpdPQNB5ORIHCQBAkLAmaMGkBpfFA44Eg2rTdokofQcKSFo5nUSqVUa1WBj4O1WqVnkxQj7omlUqZYgGgVqvRYABQLpcpFgCKxSI9F4QhGfnd7373u17/EOl0GoFAABMTE5ienhq4X0Imk8EPPzxBqVTC3l4ClUoZNpttAAVEBT//LCGdTiEajaNcLg1kHABga+tHpFJpJBJJAEOYm5sduBjk83k8efIT8vl8Iw6A1To3gIKyDklSkEqlEI3GUKvVBzIOyWQKP/ywhWq1ilhsD7VaFfPz1gEUlCX89NPP2NtLIJ1OY2pqCjMzM6RmCMMwVDfIlicWi0GSRAwPj8DjcQ3Eg1IuVyBJMvb2EuA4H5xOB3K5HGTZj1wuB6/XC6fTPhADMRQKw+8Pwul0wOfzIJPJQpb9KJdL8Ho9cDodAxGHQCCIcHgbFosFLOtFPl+ALPsxMjIMQeBgtZp/Ia3VapAkBZHILljWC7fbhVQqDUlSUK1WIAj8wAiKnZ0IFCUAm20eLOtFJpOBJPkxNATwPAebbX4AhFQRoigjm82CZX2w25eQTmcgywpKpRJ4nsPCwmBsQBUlAFUNwetl4PEwSCQSUNUwpqamIQgCLBYLqRqChOVxgsEgRFHE0tICGMaN0dFRUwZeVUMIBIJYXl6G18tgZGTkyOvx+B4kScbo6ChWV1dMm8nd20tAkmRMTEyA41jMzEyfWFhlWcHk5OQAxEFBvV4Hx/mwuLhwYrzIsgKr1YoXXrhsciHlx8LCAljWi7GxsSOvRyK7kGUF09PTWFtbwfj4uCnjkEqlIIoyhoeHwfMsZmdnT2zEZFnB7Owsrlx5HsPD5rTLK4ofqhqGz+eBx8OceD0ajUGSZExOTmJtbQUTExOmjEM0GoMsK7BYLOA4HyYnJ4+8Hg5vQ1XDYBgGPM+fWE8IYqCFJaCVRCVJQjgcBsO4sLzsNE3A4/G9faHEcT5MT08/9etDoW0oigKbzYa1tRXTLCC5XB6SJKNYLILj2KdmHGq1GgKBIFQ1BJvNhuefXzfNeKhUanj8+DHS6TQ4joXb7Xpq5sbvDyIWi8HhsEMQeNPEIZlMQZJkjIyMgONYzM6enXmp1+sIBFQEgyocDjtWVgTTxKFYLEKSFKTTGXCclp07i1KphEAgiEgkCrt9ESsrl0wlpCRJwdzcLFjWh8nJiWckJFQoSgAOxxJWV1dME4dMJgNRlFGr1cBx7FMz9eVyGaoawt5eAjwvgGEYUjgECcvjpNNpiKKIYrEAhnFhfr5/yz65XA6iKKNUKj1TSJ02Yfj9AezuxuB2u+Dzefo2DqeVOVuJoaIEkEql4XI54fN5+/rh+/HHnxGNxuBwLMHr9ejOviWTKdPYBA6XOTmOxdLSou735vN5KEoA6XQaXq+n7zegh7NzDOPWfeo3lUpDUfwoFIrweNxwuZb7NgbpdAaSJDcy92xLXtJCoQi/349EIgmPh2lpbjEa5XIZkqQcsUm1IkaDwTCAOnhewMLCAikdgoTlcSKRCERRxNTUJBjGjampyb4JcLVahSwr2N2NgmV9F5r00+k0JMmPcrkMnmf7zlf0rDKnXppZ33odfRmHUCgMVQ1hamoKLOs9UebU/1zsQpIUTExMYG2t/2wCsuxHKBSCz+c9tcypl6adYnh4GKurKyfsFEbnoMw5C47znihz6mV3NwpJUjA2NobV1UuwWPrHp14ulyGKMpLJJFjWd6HNUjKZ3LeVXLp0CXNz/eU7DAZDCAabNikPRkaGzz2uVDWE+XkbeJ7H1NTgHYwlSFjq2NErEEURLtcyPB634ft4bW/vQFECWFpahM/nObeQOmsBmZqaxNraKiYmjO0za6XM2ZpA2973HV2+vG54P246ncZPP0moVCrPLHPqRbMJaGXhhYX+sAkcLnNynK9tvrjt7R1IkgKrdQ7r66uG95kdlDnr4HlfWw5mNW0CgUAA8/M2XLnyXB8IKRWBgAq3WxNS7bL77OxEGuPMgrW1VcPPD63apFqJr6qGIQgCOI4j1UOQsDxOoVCAJEmIx2NgGHdbFud2k0gkG5mDUXCcryMn9er1OoLBEAKBQMNndsmAv6siJOl8Zc5WMh1+fxCRyC6WlhaxumpMn9nDh4+RSGhlrYtk584il8vD7/cjmUxjedkJljWeTUArc0qo19FymVMvlUqlMR4iWF5eBsf5DBeHZpkzkUhcODt3Fvl8AX5/AIlEAk6nAxzHGlJISZKM6elpsKyvIxn3arW632lhedkJnjeesDqwSZXBcb6OVGAKhSJUNYRsNgdBEOB0mufcAkHCsm3s7e1BkkTU63UwjOvc5cR2i15RlJHL5cFxvo4IqdO+p6IEkEymGr4iY/ir2lXmbEW0KIof+XweDOM2jL9KFGVEIrtYXLTB6/U+8xBCe7IefgD1lr28nRRSzTInx7FwODrfQktrV6WgUCh27VnUQzCoZZcvWubUv8lNQJL8qNWqYFkvlpZ6vxHPZnOQJAnlcgUcx3alZVI2m4OiKMjl8mBZL+z23rdxa6dNSi/JZBKqGsbY2DgEQcDc3OD1QyVIWD6TUCgESRJhtc6BYRiMj491/Weo1+tQFD9CoW2wrBcM4+76z6BlSWUAQ1hd7V0/s2g0Cknyt73MqZfd3ShkWcHo6BhWVviebTh2diIIBIIYGxsDx/m63n8yHN6GJPXeJtAs07e7zKl/PGpl98nJCayuXjq3f7Edgr9pX2lnmVMvTZvAzMw0nnturSdtmqrVKiRJQTQaawgpZw9+D3GIolZNWltb6Znv8KhNyouxsdGuz0+qGobT6QTP822zaRGEKYQl0DxpLCEQCIBhXF3NVjWFjNVqBct6e95HbXt7B7KsYG5uDmtrK10TFOl0BqIoAehcmbMVgkEVsuyHzTaPK1ee79r3zeW022KKxQI4ju3pie0Dm0AES0tLXbUJxONxSJLWb5LjfD0/OKD1AfXDbl/E2tpqF8dD58uceqlUKggEVITD21hcXMD6evfiEA5vw+8PwG5fgs/n7bnfUesD6sfi4gLW1la65tdvJgCaG85eNjSvVqtQ1RAikSgEQYDX299dNggSlh0hm81CkiRkMmkwjLujk7jWCknG0NAQOM5nqJJCpaL5ira3dxq+os75q0qlMiRJRjKZAsf5ulLm1EuhUIDfH0Q8vgen095xf9Xjx1uIx/fg8TDwehnD9Bztpk2gF2VOvWh9QAPY20uAYdwdrSwczc55DdUCKJPJQlH8yGZzcLuXO2pVaQqp8fExsCxrqJPqpVJpvy+s2+2C1+vp6FzUbZtUK8+sqoZRLpchCIIh7BIECUvDEY1GIYoixsbG4PG42lp2KpVKEEUZ6XQaLGssIXWa0JZlTVA0r0JrJ70uc7ayuMmyH5VKBT6fFw5He+OgKAFsb+/Aap2Dz+c1bNsfLbvux+joaNttApqQkhGNxsFxPkP3lNS6FCio12u4dIlv+6ZQy84FYbcvwuvtfplTL7GYllUeHh7CpUt8W+0a+bx2yDKf1zL3x2+SMhJaGzcFlUoFgsC1tV9yvV6HLPsRDvfOJqWXeHwPqhqCxTILnufp/nGChOXpwicAURThcCyBYdwXbj8SCAQRDKpgGC0jZfR2R0cXEBnj4+NYXV25cB9Qo5U59aLZBPyYmprE+vrqhf120WgciuLH8PCQ4bJzT6PdNoFQaBuBgHHKnHpp9gG1WGawtrZyYZ/Z0TIn2zd9JJs2gbm5OVy58tyFNoj1eh2SpGBnZwc+nw8M0z9Nyptt3Kanp9pyXehRm5TP8G3hDp7nMFQ1DK/XC57nTXtdKEHC8txorT0k7OzsgGFc5/K8NXf2Fss0WJbtqwbtRxeQMBRFafiKVlsWxtlsFqIoN/ow9o+QOozWfkRFKBRq+MzWWv4/SqUSfvjhCbLZHDjO15c3nRy2CWjXQ3LnEFLa/ebj42ONe977L8PR7AOqqiE4nQ5cusSfK5aiKO9XBoxU5tRLsViC3x9ALBaD3W4/Vxy0e9y1DQvLevvyHveD60KDcDgc57ouNJVKQ5KaNikWc3OzfReHUqkMVVWRTKbA8wLcbjcIgoTliYc9BVEUUS6XwDAuXWWfppCqVqvgOF9fXyl5WBQpSgDx+F7DV/Rsf1WlUoUsy4jF4mBZnynubs9ms1CUADKZDFyuZd3+qidPfkQ0GofL5YTX6+mb7NzZ4rB1m0A/lTn1ksvloSgKMpkcfD5912T2U5lTL8lkCoriR7FY0h2HVCoNUZQwPDzct0LqtDGuKH6k02l4PIyuzWM/2aT0kk6noaphDA0NgecF2Gw2EAQJy2Ps7OxAFEXMzEyDYdyn9hWsVCqQJAXx+B5Y1msKIXWa0JYkP6rVCgSBx/z86UI7FAojEAjCbrfD5+t/IXWcWCwOWVYaEycPm+30OASDKkKhbczMaM2c++m6PH3PRWS/Hc5ZNoHDZU6W9fX1Xcxn0WwLNDo6gtXVS2f6s5tlzvl5K3y+/ilz6uXgutDxxnWhJ+NQLJYgSTLS6UzbbpIy3sYrAVHUfKgrK2dfk+n3B6Gq/WeT0svubhSqGsLCwiJ4nu9Z2y6ChKWhkWUZoiiCYVxHTkWGQmH4/UE4nQ74fB7DXwvXrgVkZmYaa2ur+31Am/cvT0xMgON8pjdyh0Lh/WsGr1x5ft9XlEwm8fPPUuPaPXNk587iaTYBM5Q5WyEc1q4Ltdnmsba2uj8ezFDm1EutVtu/bvH4daGKEoCqhuD1MvB4zCekjnO4jdvh60IPbFIzYFlf39qk9NC87S0c3oYgCGBZFgRBwvIY+XwekiQhkUjAap1DPB5vCCkWMzPTAxOH5gISDIawuGhDpVJFoWCeMqdemu1HotEolpYWkc8XkEqlwXE+U5Q59aLdUuJHJpOBzTaPbDaH4eFh8DxriBuuukWzD+jubhQOhx2lUgnpdBocx5oyO3cW2nWh2u1ec3OzyGazsFgs4DjfQGWutD6gQezsRLCwYEOxWGrYpNgzKz7mXDcLUNUQ8vkCBEGAw+EAQZCwPEY8Hsd33313Ins5iEL7b3/bhMOxZMi7x7tFKpXGw4ePYLFY8Nxzq6bPzp1FLBbH1taP8HgY+HyegR0P6XQGDx9+j8VF7S56s2fnzmJvbw+PHm1hZeUSnE77wI6HTCaLv//9e7hcxryLvlskEgn89JOEf/iHf8DCwgIIogn1EQCwsLCA+fn5gb83dWpqChMT41hcXBzoOMzNzWJqahJu9/LAikoAWFxcwMTERF+e/m8ns7MWjI2Nw+GwD6yoBACbzYbx8TFTl//1YLHMYGRkpC9P/7eT+fn5nt4cRJCwJAiCIExBnUJAcSAIEpaEXoYoBLRwEDQeCOLZqwUtFwQJS4IW0BaiQGGg8UALKEEQBAlLWkApBm2QEhQCgjYaBG00CIKE5XknCpopaAElaAElCH1zJM2TBEHCktAnJSgEBG00CBoPhM7xQAOCIGFJEyZBEARBEAQJS6LTUOmTIIinzBAUAoIgSFgS+qGsLUEQBG3AaaNBkLAkCIKgBZQgCIKEJUEQhPGhdD7FgeJwZLtF+y2ChCVBtLBskC+AFlCKAUEQBAnL8+28aOt1sAOlRZSGA3Fyo0ExIAiCIGHZ2tJBIaAFlCBO22pQCGjDRfPkqXGgQBAkLAmCaEFQ0bpBEL1AwYfXrLBYrHjpA4XCQfQNoxQC4riQIAji2FNBj8U+tNHowjwpfoSXrt4GNjaReY+lcBN9BWUsuzZhfo1P/mLFzeaf//oIYZ3ve8ui7VotFissN7/udBRoIBAEiamexOGrm4fmuhbmO/mDa4fedw0fiv0c5a/x1tXbePFuEt+QqCRIWPbx/rOjG9Cv8clfruOvc/fw8T8l8fHVDbhKt/Hbb/RMmi/j00wSmUwSmcw93Lhz3RxlkS/fhuXaR5AHbtE4bQF9G1/pfF+3Y9Hp5+LIpslixVtfGjMOXRUVFqvuZ6PbG8/OZ27X8f5mc75LIvPxy7rexb13f/89DzeAW1f1P1PGmxvv4u7lDfz21TY8Ux1PRFAqnyBh2RuUu/grgF8uNSbJxXfwf80BSN3Fty39Ry/jn98wiai6cU/315tq0WjwyscHi+fnb9zD6zqFhLlicXjTlETm7nXcvaHv85hxTGieuuvAG9fPGcN+33gq2HpwFevCxf4X7rU3sd7Ho0B+sgm8CHxx7TwC0aSJCIKEJXGUcHYTwDpclotnM/50Zx2/ea2PyyNfvo3XcQ+Zu9fP9fZ+XzROFZm/olgAAF69gRsDHIevbl7FH369iU9/dX6h3t8bzy189+geXj9HJv+IMPviM2y9cQOvdPAn7WRbtq3vt4A7nwH/2RCImxtYP5dA7Px4IO8xQcLy6Y9IxyfNcOai2Yzb+MXmfbwr9HGYX/1Ed3mrV4tGczx0q43GV3++h/VfvwbOsLHoBlq27sHGv7f8efpdSABaaf913Lugp65bG89OxeFoBvvzN+7h9VbF5Zdv44XvNy40xxiB9Y17B/O88A4+31jH1h+/0GmP6O54oHZDBAnLHuByvgkXgL9Gv95/4L9NAZi7gX8EtBOAT2sp8eXbsFiuA//ZLVFp0InCJIvGcUFx68pm64Kiq7HorKDSslNXcevRORbBLsahY+vnl2/jhT++iYcX+gwm2Xge4pWPN/H+5Xv405eHx8pZftpGa54/3+h/UXllXctaHufF9RY2n+YbDwQJyz6lQyvH4jv4vXAdSF1vnApvHOR56egEeOpkIn6El27cA7CFW1e7cVihN30LjbZodL7Eo5nsT8tSaQd7zsrUmGcBBU7zSh6MgUEREl/9+R7w6DZeaJaAbzT/3vjshtt49pItfPfDKTG8eRW3HgG4c71rB1c6NU9y723gxp3rhw6yfY3f397CjV+9fGTuOPPzDdR4IEhYDjLsJ9qJ8Oafw6JSeAfvv6HtVE8gvINvDh9wyCSRyfT/hCE/2TT0otFZtLLvXQBbt6/uf6ajwmETW6K5F9CTC+o9vH/5+Bgwypjo3E7j8EGu5iEmXN7Aw2PPuTE2nl3ky/8Htx5dxz+/ekhwYR2/eE5HDFs4UW68Z+JlfLq5gQc3mr/P63iwsYlPj58Sf7B1sjRu5vFA9A3UIL0HC+hpi8OtO9fxfqb3h3K6Zcbm3ruPzHvHdum3b5+9aHxsql0G3r2fxLtnCY1/28D6nQenno41XyyOichHB8LBWGOih/YQ4R28/8Zt3Dpz4/mO6ebJr25a8fqddby/eX/fOyt/cBt339jAp4OQhXvq7/Vl/HZjHXe/P6U03oPxQBAkLHssqE6i4MN/+Qy/OTSBDiIDtWg8a1H9D+3GjUEaD5qQAG7cTe4zeYA1AAAgAElEQVRn6WhMGG/j2dlDjl/jLYuWyccb95DJvHwkBq//8U08vG8M20NvT0N/jd/fBt7ffBkEQcKSOAUW796/P/ALp5EWjZ7SbMc0ADduyB9cwwu3tfLu+sYmMoeF0yCPiVc/QebVQdx4aqfCPz3tJeEdfHOfpgdtE3YdOLQBIwgSlgRBi4ZOUWFujtshaEzQxpN4Nq98nBzo6hZhfOjwzj7U6ZUg6LkgCEL37DBEfSwJEpYEoRuaL4ljI4JCQNB4IAgSlgRNmBQHisNFGaKNBjp/AxHRf88FQZCwJJ4tI2jdII4ICYIgaJ4kCBKW55kqKAQEQQsoCWziWSOCQkAQJCyfvXDQAkoTJkEQBEEQJCwJgiCILkAbcIIgSFgSRItUqzUKArFPpVKlIIBayxBHKZfLFASChOVZjI9PwO8PIpVKDWwMgsEgcrkcJElGPL43kDGo1WoQRQnFYhGKEkAsFhvY8RCJ7CKfL+DHH39CNDqYcSgWi3j8eAvVagWiKGF3Nzqw40FRAqhUqnj8+AdEIoMbB0lSUC6X8dNPPyOdTg+ooKzgxx9/QiqVgiSJSCaTJCKIfYbqtAXdJxwOQ5IkzM5a4PG4MT4+PhCfe28vAUmSUa/XwXEsisUiZNkPi8WCy5fXMTo6GBc07exEoCh+LCwswOfzNiZNBRMT41hbW8Xk5MRAxCGVSkEUZQwPD4PjWGSzWciygpmZGTz33NrAPBeK4oeqhuHzeeDxMIjF4pAkBePjY1hdXcHU1ORAxCEajUGWFVgsFnCcD8mk9lxMTU1ifX0Vk5ODEYfd3SgUJYDR0RFwHItMJgNZ9sNmm8eVK88PzDqpqiEEAkEsLzvh9XoQi8WhqmHY7XbwPD8w8wNBwlI39XodkiRBURQwjAsM4zbtZ63Vavj++8dIpdLgeRZut2v/tVKpjEAgiEhkF0tLi1hdvWTaOGgLpYyRkRFwnA+zs7NHXg8GQ1AUP+z2JaytrZg2DsViCZIkI53OgON8sNuX9l+rVCoIBIIIh3ewtLRo6jg0hdTs7CxY1ndiQxEKhSHLfiws2LC+voohkx4Zz2QyEEUZtVoNHMdift66/1q1WkUgoCIUCmNhwYbnnlsz7XgoFArY2voR+XwBHOfD8rLz0GtF+P0BxON7cDjsEATOxAmIPUiSgsnJSXCcD9PT00fWkmAwhJ2dCARBgM/nIzFBwpI4jlYSlpBKpcAwLiwuLpjq8/3448+IRmNwOJbg9XrO3GWm02nIcgCFQh4ejxsul8tEQqoIUZSRzWbBskeF1GlfqygB7O0l4PG4TbfhaGbnvF4PPB73mWIpk8lAUQLIZnOm23il0xlIkoxarQ6e98FqtZ75taVSCYoSQDweh9vthtfLmCYO5XIFkiRjby8BjvPB6XSc+bXZbA6KEkA6nYbbvQyv12Oq5+KHH54gHt+D2+2C18tgZGTk1K9LJJKQZT8qlQp8Pi8cjiVTrYWiKKNUKoHjWCws2J7ytXmoagjFYgmCIMBut5OYIGFJHCcWi0EURYyMjMDjcWFmZqavP084HEYwGMLk5BQ4znsiO3cWu7tRyLKC0dExrKwImJ21mEJINcucemlmN+v1Oi5d4jE3N9fXcTgoc86C47y6y5rN942MjEAQeFit/RuHcrkMSVKQSCTAsk8XUsdJpdKQJAXVagWCwB/J6vUjwWAIwWAQy8vLTxVSJ+fJOGTZj6EhgOc52GzzfR0Hvz+IcHi7kbX2YmZmWtf7dnYiprEJVKs1yLKM3d0oWNYHl2tZ93v39vagqmFMT0+D5wVYLP29XhAkLDs04QYhiiKWlhbAMAxGR0f66udPp9P46ScJlUoZHMc+NTt3FvV6HcFgCH6/H/Pz/ekrikZjkCQFc3Onlzn1srMT2fedra2tYGxsrK/icFDmrIPjfOcWRMFgCLKsYH7eihdeuNyHz7WKQEDdz7YND5/vPGMksgtZVjA9PY21tZW+85nF43uQ5dPLnK0QCoX3n68rV54/dzx7GQdJUjA0hGdm584WZP1vE9je3oGiBLC0tAifz3Pu+S0c3oaqhsEwDHie171RIUhYDgyVSgWSJCEcDoNhXEe8Nkbm++8f75e1WsnOnUWhUICiBLG3twen0wGeZ/tAWGeOHFBqR4atVqs1MhthOJ0OCAJv+DhcJDt3FsViEX5/ELFYvG98ZpqAkDE9PQWWZTE9PXXh/7NeryMQCCIYDMHhsGNlRTB8HA7KnGVwnO9cQuo4pVKp4c+Owm5fxMqK8f3ZlUoFjx5tIZPR/MWH/ebnpR9tAslkEqKoYHR0FDzva0umsVwuQ1VD2NtLgOcFMIx5bCMECcs2ipQ0RFFEsVgAw7gNW/4SRRmRyC4WFmzw+TxtL8toviIFlUoVLOs9Vxa0G0JKFGUkk8m2CanTFmdZ9iOXy8Hr9cLpNKavKBhUEQyqjTKnByMj7c0mJZMpyLIf5XIJXq+nI7Fux2IvSTLKZS1z34mSbT6fhywHkMmk4fV6DLkBrVarkGXlXGVOvaRSaSiKH4VCER4PA5fLmBvxJ09+QiwWg8PhuFB27uxNTBySZGybQKFQgCjKyOXy4DgflpYWO7K5D4XCqNfr4HkBCwvmOrdAkLBsC5FIBKIoYmpqEh6P2zB+mkgkAr8/iLGxMXDc0w8htIPt7R3IsoKpqSmsr68Zpi1Pu8qc+hcQLQs2OjqK1dWVtmTB2vdzab6vi5Q59dK0CUxOThomDtVqFZKkIBqNgWW9HRFSx2m28RoeHsbq6opun16naVeZUy+7u9H9Nk0rK5dgsRjDp66qYahqqJG19nXcN651E9C6DRjFJlCv16EofoRC22BZb1cO40WjMahqCPPzNvA8j6kpY8yTBAlLQ6EoCkRRhMu1/NQTtZ0ml8vjxx9/QqFQAMexXc0YVSrVRjuabSwuLmB9fbXHQkrG9PQ0WNbXdWETCm1DURTYbDasra30bAHpRJlTL7VaDYFAEKoags1mw/PPr/dsPITD2/D7g7DbF+Hzebvel3V7eweSpGB+fg5ra6s985klEklIkry/4ezmgQrNJqAiEAjCZpvH5cvP9Ww8JJNaxalSqYLn2Y5k587CSDaB5oFMq9UKlvViYqK7CYFgUIWqhiEIAjiOIyFBwpI4TqFQgCRJiMfjYBhX18vCjx9vYW9vDwzj7kp27iyy2SwUJYBMJgO3exkej6eL31trEVUuVzpW5tRLuVyG3x/A7m4MbrcLPl/34nCQnetcmbMVcasoAaRSabhcTvh83h4JKbanmbJKpQK/P4hIJILl5WVwnK+rc1Ony5x6yefz8PuDSCQScDod4Lju+rMfPnyERCIJjmPh8fSuVdZRm4C7q8+oZuWSAQyB53097WxRKBShqiFkszkIggCnsz/OLRAkLLuK1kRWRL1eB8O4dLfzOS+KEsD29g6s1ln4fN6Olzn1orUfUTA0NNTxNiy9KHPqn8Qz+1fA8Tzb8axhOLwDvz8Au30RXq8XY2PGuDWpeeoYOP9pW/3iRdvkaQ2tWUP1oM1ktFuMisUiOM6Hxf+fvTeJbevM8r7/midqlkiRl7wDJZGeXrm6ArgW36o3CZAGgvdFYFe7gEIBQbLoRQrZVqAuNBpGehskywQBCgEq3TaC/hDgCxBvetfvW+5OKtabuCy7cifycqbEeRJFfotLapZ8KXO4JM8P8EKJZOsePvc5/+ec85yz2DqR14k0p/F9MgFZVlGp7IPjWi92f/pJQjQaxeKinv5vd3TuPOplAiMjI1hfb22ZQKlUgijKSKfT4DgWVqt5asGTySQ0LYiRkVG43e6ub+NGwpKEZUsIBAKQJBGzs7NwOh1Nr2Oq940bHBwAz7OYn583pR00LQBZVlvWfkRPc/qwvLzUkTRnow5kYmIcHs86xsaa247GTNG5i9+L0EGbpmaPC61Wq5BlBaFQGCzLgmHM28y/3vZqfHwU6+trTa/P7nSa0yj1MoGpqcmWjAsNhcLw+TSMjY2C41hT9lvV27hpUFUf5ufnW1ImoHcr0A4yWmadFhUOR6BpQdhsNgiC0HVt3AgSli2nUqlAkiT4fD4wjL0pLSxKpRKePn2GbDYLnudMFZ276HdWVT+i0Ris1iWsrr58G5a6kBodHQHHmVdInXYgAaiqDzbbclPqq46mOQWhtRGwZqGXCTR3XKjeR1Kf28xxrq7pI1k/eC0vL8Ljefm6ZL1hu4yBAf3A2Q2Rn+PjQheaYodsNofnz/+KYrEEQeBMFZ07j3y+AFX1NbVMoD7f3mLR68274aLM/v4+NC2ASCQGt9sNl8sFgoQlcWqTy0IURWSzWTCM/dJpwGfP/opYLA673Qan02maNKdxp5eCLPtQKuntRy7ThsXMac5GxKCi+JBMpuB0MnA4Gj8c6NE5FcGg+dKcRkmnM1AUFfl8HgzjuNTBK5XS68X0yD2HmZnprrNDfVxoIpEAw1xuXKiZ05xGyWSyUBQV2WwODof90jWQT548xe5uAi4XA6eT6bom7cfLBFxYWmq8Xl/3OXLtghKLubnum4SUzeagaQGUy2UIgvtSdiBIWPY8sVgMoihidHQEDGM3XA/p92sIBEKYmtJPnd0QnbuI+pSS0dFRw21YqtUqJElBOGz+NKdR6lFXYADr68bHnh1Pc7JNT6u3m8uMCy0WS5AkGem03tDajD1UG0UfF6qgWq00NC70MM3JwOViTJvmNL5PxmtlPoNYXeUNt0uTZQXhcOQg/d/tbWwuUyagD/FQsLOzA45ju2aIx0Xs7OxC0wKwWKYhCELXj1UmYUm0BJ/PB1EUYbUugWGYcxtVJ5NJ/PSThEql2jVpTqNUKpWDPpMvaj/SrWnORhxIvQ7V41k7t+7weJqzO6NzLzpAKcqLx4Uqig+aFjiISHW7kDpJOByFLMsvHBd6mOacqqU5x3vKDnqZgH6AumhcaCwWg6L4MDg4VKs3n+sZGxwtE3hRG7dAIAhV9cNmW4bL5eq6scMvIhAIQtOCcLlcEASh6yLRJCyJlqNPhBERiUTAMPZjPScrlQp+/PEvSKXS4Hm2K9OcRsnn87W0cBIrKzZwHHtESKVqac7BnhRSR9nf34eq+hEKhWG3247VV/VCmtMohUIBqurHzs7pcaF6JEu/+MPzrGkGErTq4OXz+REIBGG1WrG6ejgutJ7m3N/fr815n+tZOxyOC41jeXn5mB2KxSKePn1Wqy/meiI6dx7HywRWjo3m1RvxKxgbGwXPsz0d0SuV9PGQyWQKgiDA4ehd30jCkrg0yWSy1nuxBIZxIBqNIRqNYXl5CS6Xs+vTnEbR64oUVCp6m6ZEItlTaU6jZLNZyLJed8hxHPL5PDStd9KcRjk6LtRmW8bubgKVSgU8z5l2hGorqI8LzWZzYBgHstksdnZ2wXGunhZSp/fJ4+NCE4kE4vFd2O0rcLkY03aDaDbxeBySpJcJOJ12RKPxg9ZV/TQiMZ1OQ9OCGBgYgCC4TdsVhYQl0VFCoRD+8pe/YHBwEB7PWk9H5y4iGNTb0Swt6VMp+kVInXYgO3j27K+1MZnrPZfmNP5e6HVmDONoa5N5s7Gzs4vnz3/C7Ows1tfdHZve02kikShEUcbY2Bg8ntW+rbfTtAB8Pn/bm+2bjWg0Br9fw//4HxstH11MGIeKFEzCysoK7PYVsKyzb0UlANjtKxgdHYPNZu1bUQkAi4sLGB0dBcs6+1ZU6u+FDcPDw1haWujr/WFhYR6DgwNgmJW+FZUAYLUuY3h4uOdTvi+CYRwYHByEzbbc1+/F8vKSaXu0krAkCBPRz4KSOGs9kA3qUH6J1gPtkwQJS4IgB0oQzZASZAKC9kmChCVBjoO45Gqg5UAOlCDIX5AdSFgSBEEQBEEQJCwJwgznTzqAAqAoHUGcs0OQCQiChCVBEATRhOMGmYDsQHY4esygcwYJS+KiF4TeEOLkhkmOgyAHekpO0WtBHFsPtCBIWBL0gtBJnBworQeCoIMGQcKSIAiizS6UTEAQBEHCkiAIElREM6EINkEQJCwJghwo8XKrgUxA78ThcYvOW7QmCBKWBEGQoCIHShBEC44aZAISlgRBEOQ4GrYCmYEOGQQdwElYEgRBkKAiCIIgYUl0wIGSByWIk1CEijhjVZAJ2mKHh3jLMguLZRZvfW1ev0lt+khYEsSLtgoyATlQgtbDOUKCDhtt4eu3YbHcBu4nkckk8dnrZBLCGMNkApO5DdowyYEStB4IopMHcPFjvHJnCx9sJfFbN1maaAyKWPaTA1Xexjv/MXvw5/dPFIM/eJgOsZg8LdLwifzWx5ANfOs37xx/fss7D9viOFp30DjxmTbwPO22RUsrRMSP8cqxtX0LH4nmtENb3wvLLF75UGm5Dc2Hgo9uHf9cjdpB/vDW8fVgcG8xI/JXn2P77r3LicqeWg8ECUviYlEpPsAv3El88rdJ/LPNi2B4A58a2jNfxWcZPR2SySSRuX8b9++8jW+6UUgcFQV3Hhj+/tc+OfL8mQe488XtLhfXRz9T/XmMOtCesoX7XXx7ZG3/cA94/++NCYJO2KHlGQ3xY7xyB7hztz02vOyBq7XcxpdHnufb9zhDP8W/9+jIetjCB9jEm0bFucmCENs/bsN7ffvY4dPwQaPt64EgYUl0hO9iDwDcxs9re6T92j38AsCfYpeIsrx+B3da/Pu21IF+/TbexANk7t++tCj75d3Wf2btu8v1Ms/THlu0C/6NX8NrWju0ekE8xFsbn+M3W5/ilx2xYecFFbCN73GzCb8/hzd+5W35em3NPqlg+zGwvfkYvzwSTNje3LjUwan164EwG1Rj2RcoCBYAjN6EvQl/10e3buPxvS181q3meP1TZF4H8PX9S/24/OEtvPn4Hn74pFfWx0P82xde/GaLM60t2lN7/BBvbWzi5v0k+L5bE/p7jft6Td03HbChKRC38fjJJm5YNvWvr93DD4/ebfxZvn4bNzY38GWGa+Ev29qDxp37n+K1I3vml3cf4M1/f4jPXn+1f9YDQcKy22l5u6HSYwSBS4lL+cNbuLG5XfvKiw/e4PrrwxE/xisbmziwwL03emSjVPDRrU38bOuR8XqqHrPFN+/M4s0v6l/dxpev958dvnlnA3/41Ra+fb3NNjQb7nfxbebdI+/GBm7cgkFx+RBvWW7j4Lh698GhMGuJv2jV38zBexP4wzMFeP34Pu+97jXleqB2Q+aCUuF9AYefz3sBPMB39TIZ5T7+BOAXS68eOskL6miO1g/9cA94f6P3CrL1yxjn1I4erRvaugdsbhivOTIr9XYi/3paVPaTLY7WSn559wHePPLc/WGHh/i3L4DtzY2Dero361/XLqDoF1POf+cvsmE375u/ffQAd558jq9EA+vhjLrlVl7oaqWWeu1394DN24eft/gx3v/Ci9/UAwov8Be9uR4IEpbEMezXHuEfZoA/ibVb4bWLPG+fCDxu/7j9wr+Lf+8BPri2je+fdrdN5GdbZ/zXLWy/SDC738WX97yGbGVaxI/xyp0HALbx/sZ5tzfNYov29TV97ZMHuHPquXt9TZy4nJdJ4su7gPfeFjLHInXG3vmzbdh0WdVBexl5tlfx2f3bwOPt7ry04n4X397fONwbNjZx8/7pA6iR9d6e9UCQsCQ6ws9f0W+E1/8cE5Xud/HBXaOpjm18/8SLn13pbnvw7z065jhf+909eLEBr4GUsH5rsotL0k/c3NT/HDqOvrLFMcG9jcdHntt8dqh26F25hzsw+M6fsGFLrNAmM8gfbuL+tV/jjUusB/nZFnDT2+LyiBYa4vVPj+0PxxqkN+IvWr4eaKAGCUvCFBvm6Zf/Y7z/xW188ILWGnoq6DZw/1HPNc795l82gXv/eHFdVK3H35t4YLgNSTcKCfPZotV2qPUvrN2Kfs3Ua6L9yB9u4v4L+xqebcPuFBL6s9zY3MCXRw6fhtZDLU1844+/xg+fvNo6K3RSTxnyF+1aD4TZoMs75pOWHfg3FXz095/jN1uPznz5j17c8d7bQibTg4Kq3oLorI3y6CWNa/fwQ+bTtl3S6MhBw6S2aImAPnLJ4M79pN4toA/tcJLXPkke7gXix3jzj7/GD49ebdyG3caRz9V7b+v4Z3/Rejh2cUfvg9m7Qupif9Hu9TBAAUvTMVCl61Sm4fnz5xgYqMJuX+lrO3z//f8FxzkxPz/f13b4858fw+lksLy81Nd2+O6777G+vorp6em+tsO33/4ZbreA+fm5vn8vXC4nlpYW+349eL3rsFgsfW2H7e3n4HkBCwsLJCJMAqXCCVNCxx2AaocIgqB9kiBhSVxeRlBMv2YHsgFBDpQgCKP7A20QJCwJgiAIgiAIEpYEQRAEQXQaSu0QJCwJgiAIgiAIEpZEW86fdAAlCIIwANXUkR0OPCeZgIQlceE2QfsEQRDnOlDaIGifJAgSlgRBJ/FLUKlU6LYjrQfilKiktQBQhqvO/v4+GYGEJXERiUSir58/lUojl8tBFGXk84W+tYOiqNjb24Oq+pDN5vrWDvF4HKVSCc+e/YRsNtu3dohGYygWi5AkBZVKpW/toGlBlEp78Pn8KBaLfWuH3d0E9vb28Py5iHK53LcH759+kpDJpKEoCnK5/t0nTXfoock75kEXVCLS6TQYxo7Fxf6ZJFAsliBJMtLpDFjWiXy+gEAggIWFeVy54u0bO8RicciygunpaXCcC7u7Cciyirm5WXg8axgaGuoLO2QyWYiijEplHxzHIp1Ow+fTMD8/h2vXrvTNeigUCtjefo58Pg+nk0GhUEQsFsPy8hJWV919JaQkScbY2Dh4nsXu7i4UxQerdRnr66t9Y4d8Pg9RlFEsFuF0MshkMgiHI1hcXITHs9Y3dgiHI1AUFQsLC+A4FyKRKDQtCJ7nwfM89YQmYUmcJB6PQxRFDA8PgWHsmJqa6unnVRQfNC0Al4uB08kcbAq5XA6K4kM6ncbKygpY1tnDQipTE1JVCAKL2dnZg/+3t1eGz+dDJBKF3b4CjmN71g7lchmSJGNnJwGeZ2GzWY85VUXxIZlMYmXF1tN2AIDt7WeIx3fgcDjgcjEHh4pUKg1ZVg/Ehd1u6+HDdh6SJKFYLIHnOSwszB8T3fp6SMHpZOBw9O4o3EqlAklSEIlEwXEuOBz2g/+XTmegKCpyuTycTsex/9drJJNJiKKC4eEh8DyH6WnLkeBEEZoWRDqdgdvtxspKf49GJmFJnInf74coilhaWoTT6ei5aFU9OmexWMDzLMbHx8/8vp2dXciyAgAQBK6nZojv7e1BkhQkEglw3HEhdZb4rAsKnud6LqKtaQH4fH6srNjgcjnPXe96FFdPCXMc23Mzo1XVj2AwdBC1npqaPPP7IpEoZFnB6Ogo1tdXe+oAqgspGdFoDBzHwm4/XyQkEklIkgwAWFtbPSY2eoGj0TmWdWF0dOSc/TQGSVIxPDyEtTU3pqene8YGhUIRkiQjm82C57kL3/lkMoVAIIihoWG43e5jh3SChCVxIDwkhEIhMIwdKyvdH504jM5VwPMc5uaMvfiBQBCyrMJiseDaNS+Gh4e7/OCgwe/XYLevwOl0YmjIWMlzLBavpQXH4PGsY3x8rKvtsLu7C1FUMDGhpzknJycN/VwwGIIsK5iamsKVKx6Mjo52tR12dnYhSQoGBgCeZ7Gw8OKDQ7Vahc/n76kygVBIF1JLS7qQGhkZMfxzsqxgZmYaHs9a1+8PyWQKkiRjaGgIPM8aFop+vwZZVjE/P4fr1692/XqQZRWBQBAs64LT6TD8c3p6PIDlZSsEQej6/YGEJdF0UqlULSVUAMM4DIsxc4lkPc25u3s6zWmUeuF+JBLF0tJiV9ZX6QJCxsTERENC6rQDCUBRVCwvL3VlfVUul4coSiiVTqc5jVIul+Hz+REKhbu2zqxcLuPJk21kMhnwPHupVGY+n4eq+pBIdG+ZwGGac7gmpBqPPO7v78Pn8yMYDGNlxQZB4LrODsViEaKoR+c4jsXy8lLDf0ehUICq+rGzswurdRluN991dohGY5BlFbOz0+A4FmNjjR+gK5UK/P4AIpEIBMENlu3t8hkSlsSlCIfDkCQRk5MTYBjHueljs+H3B+D3+7GysnKsXuyypNNpyLIPhYJeV2S3m7+uqH7bvVTagyCwTUnpF4tFKIqKRCJZqzMzvx0aSXMaJZPJQFH0G/QMYwfDOLrivXj+/CfEYjFYrVawrNNwdO48jpcJcFhaMn+5hJ7mlJDN5sHzzSltyGazkGUV+Xz+0uKsExxG55xwOpmX/vsSiSRkWUW5XAbLumC1mt8O6XQaoigDAHiew+zsTFMOsZoWQLFYgtvtxvLyMokJEpbE6Q1IhiRJtTSqw7S34Or1kePj4y8VnbvoVCtJCkZGRmp1Rearr9rf34ckKYjF4uA4V1OE1Oloj542q1arWF11Y2bGnPVVoVAYiuJrOM1plHrd7tDQENxuoSlOqRVoWhCaFsDk5AQ4jm36ug0Gw7UygUlTlwnIsoJAIASOc7XkMBCP70CSFIyOjmB9fQ0TE+Y8iOvlLXoan+PYppe3hMMRSJJebuL1rpsyIFEqlSBJCpLJFHiehdXafPG3u7sLTQticnISguCGxdJb9bgkLIkmnPQLkCQJOzs7YBi7qU7lR6Nzer1Y6y7cVKtV+P0BqKqKuTlz1RUFgyGoqh/Ly4tgWVfL677C4cjBhSiPZx0jI+aoMzua5hQEtuUbut8fgCwrmJubxY0b10yzHpLJNERRRLm8D0HgWnrxqF4mEAyGsbRkrjIBPc2pYHZ25tJpzkao12cvLMzD6103zUE8nc5AkiRUq82Lzl10wPX5NAQCwVobN49p1oPP54ffH4DDYYfLxWBwsLUttoPBEDQtAIZxQhCEvmnjRsKSaOgUJooigCoYxt7R24D7+/uQZaWpac5GhLai+LC7m4DNZu1ofVX9purIyAh4noPFMtXGz6BSE8Qk0P8AACAASURBVBRB2Gy2jtZXFQoFiKKMXK55aU6jFItFqKoP8fgOrFZrx+vMfvjhCRKJJHiebUqa0yiZTBaKopqiTOAwzTkAnmfbGlEulUpQFB92dnYPBEyn2NvbgyjKSCaTL+wG0Wyy2RwURUU6nYHDsQKXq3Nt3OLxHciygsnJSfA8i4mJibZ+BpoWwO5uAm73KhyO7iifIWFJtJVAIABJEjE7Owun09H0NOOLOExzLjalXuxlRJ0sKyiX98HzLiwttS+SWxdS+Xy+4y2BcrkcZFlFLper1Ve1r66oWgUUpbVpTqMkkynIsoq9vRJcLmdbnTgAiKKESCSGxcV5sKyr5dG58+hkmYCe5pSRTKZbluY0SiqVhiQp2N8vw+0W2n4R0u/X4PNpB6Ku1dG5i0WdioEBQBB4zM/PtVHc6gMQyuUyeJ5r6799+rCTQSAQQLUKuN2rPdXOjoQl0RT0ixESfD4fGMbelsscx6NzrGnqVkIhvc5sYmICV654MTbWujqzarUKWVYRDHZeSJ2kfgt9eHgYHs9ay6MCh2nOWXBc54TUSeplAuPj422xQzgcgar6MTo62vbo3EVoWgCS1L4ygXqak2HscDqZjgmpk9T7gE5OTsLjWWt5HWr9PZycnATHsZicnDCFHQKB4EF95/XrV1v6+ZTLZciygnh8BxzHmqp9XiwWh6YFMDc3D7fb3TUXY0lYEm0+EYrIZrNgGHtLahw7meZsZCPz+TQEgyEsLi7A611viZCSJAXz87PgONa0FyWO1pl5PGtNdyBH05yCwGJmxnwXZ/b3K/D7daGzsDCPq1ebPy40l8vh2bO/olgsQRC4jkbnzkMvE/DXygRa046mfnHGYtGFVDvTnI0cCOvC12pdxtpa88dkZrM5SJKEvb3OR+fOo1Qq1dq4xbC8vIi1tdWW7D+q6ofNtgyXy2naPqN+vwZNC8LtdoPneRAkLIlTp7AYRFHE6OgIGMbelFvZZo7OXSS0FcWHTCYDh8PelBq3VEoXUoODA+B5zrQ3sY87kD2oqg+xWBwMY29KfVWpVIIoykilOp/mbET8KYoPqVQadrsNLOtqyt/75MlT7O4mDsaTmiU6dx6tKBM4THPuQxBYzM3NmX495PN5yLIPmUwaLpezKZE0vRuEjFhsp1Zvbv7hFqlUGoqiolBo3rhQfc67grExPXLfDROiCoUiNC2AbDYHt9sNm613x6aSsCQujc/ngyiKsFqXwDCM4SkvJzFrmrPRKMrg4ABWV4VLjfuqC6l0Og2e57qmR95R0mm9zqxcLr/UmMyjaU6Xy2natlfnUW+HVa3q40IvG9lXFAWhUOTgvTBjdO4imlEmYOY0Z2MiSMbg4CDW19fOHaf5IvRuED4sLy+1pRtEsznaxm19ffVSlw/z+TxEUUahUATPs105gjaRSCIQCGJkZBRut9uUWRgSlkRH0QvoJUQiETCMvaHohF7wLmNgQL/N2e0vmKYFIMtqw3VFquqD3x84iEh1m5A6z4FMTk5gfX3NcB1qXaBPTU2C5znT9gc0ymXHhcZicSiKisFBfeyeGdOcRqlU9G4CmhbA/HxjZQLH05wuDA93d/uWeh/Q2dkZeL3rhtvRJBKJg76ZHNfebhDNRi8T0ODz+RsaF1qpVCDLCsLhKDjO1RVDG4wcvDQtAJttBYIgdOxiKglLwrQkk8lazU8JDOO48FLB0egcx3VHmtMoxaJeVxSNxmC1LmF11f0CISXDYrGA59meKuzW+4DqDkSvMzu/vqob05xG2dvbg6oaGxdaKpXw9OkzZLM5CALXldG582ikTKAb05xGKZfLtfUQwcrKCnj+/HGA+bzeUzifL3S8G0SzyecLUFW9jdvKihU8z10owBRFxfz8AjjOhdHR3hFg+/v70LQAotEYBMENl8sFgoQlcYJQKARJEjE1NQWn03Eqra2qfmiaBoZh4HJ1f3TuPFIpvc6sVCrB6WSOiYRMRhdSlco+eJ7ryhntRikUCpBlH1KpFFwu5lgP0nK5DElSsLPTvWlOo6TTaSiKD/n82eNCt7efIx7fgd2ujyfttjSnUeplAgBOzXKvpzmLxWJtAMJCz66HTCYLWVZQKBQhCCwWFxePHcokSUE4HAbLsmAYe8/aQR8XqmJ/f//UZc365K+hoaHanPfpnrVDNpuDpgVqZUTutrazI2FJdA2SJEGSJDCMA06n48Rtzu5Pcxql3n5kdHQUgsAjEolgZycBnmfb3vuwk9TbRw0MDGBtzY1UKl1Lc+rzrPtlSkW9nnh4WB8XmkwmEAiEYLFYwHGunorOXUQgEDqY5nTlyjr8fq2n0pxGqY9dHB8fxfr6+sGBdH5+rhadG+0LO4RC4YMyGEHg4fdryGazXTWTvTkHrx1oWhAWyzQEQeib/YCEJWGYfD4PSZIQDocBAB7Pak+lOY1SqVTg9x+OPVtddfftuC+94b2KsTHdkV72IkM3Ux8X6vP5MTQ0hLU1d0+lOY1SLxOIxeKYmZnG6qq7p9KcjaBpAfj9AYyMDGNtbbUrukE0m/q40EgkCpvt4vR47x+8gohG47h58yaJyxqDZAICACYmJnDt2jXMzs5idVXoS1EJAIODg2BZF4aGhuBwOPp6huzKig2Dg4O10/hkX9pgYGAALheD0VH9dmw/ikoAGBkZweqqgIGBAbCsq29FJQAwjKMWze9PUQkAw8PDEAQe1SpOlYr0Gw6HHQMD+iGUIGFJnEG/pHNeLCjo1agLK4LWw+HBi9bD4XtBQoL2B9ofSFgSBEFcGhISZAeC1gNBwpKgEyhBjuOl3wuAMl3E0fVAEAQJS4KEBNmBIAiCIEhYEm2VU6SnKCJBEATtkwT5CxKWBEGQA22J6yATEPROkKAiSFgSBEGCqilSgkxAooogLngv6MUgYUkQ5EAJgg4axEvtkbRPEiQsCYIgCOJl5DXpa7IDQcKSMLpR0E5BEARBEA14TjIBCUuCIIhGoZwfQeuB7ECQsCQIOoGS42iGFcgMtB4IgiBhSZDjIDsQdNBokhXIDAS9F/RekLAkGpZTpKcI2jAJgvZJgiBhSZCQIMiB0ntBtHxFkAnahPzhLVgss7Dc+hiyqfdJ2ijrDJMJCIKEBEHQQYMwFwo+urWB93EPP2TeBU8GIWFJEORACYIgaJ+8DN+8s4H3bz5A5pNXychdBqXCiRO0NlQXfHIL7/zH7MGfT5VL/CVfvw2LZRavfKh0ua0VfHRrFm99fbmfs1jexjfd/Pjix3jFMqunuS79eT7EW12QJruIg1Rf/c+lnqVH1kQTnqVuz8bfK3O+FxbLLXwk9tt6eIh/+8KLD37XBFHZM/6ChCVBnCkqfx8G/udGEp/8bRL/MAP8SbyF/y/e4KZ7B7hzt8uNIX6MVywbeP/J5U7yf7h5G95uXxDud/FtJolMJonM1j1gc6NBMaDgo1u3gbu3u9oM/HuPdBtkkshktvABNvFmg06wZ9bEyz7L12/jxh83cOdalxvh7oMja+IRfuvusz1C3MZjbABfHT10XUIkt81fUO0UCUuiI1GI73a3gdFf4+eL+n/5OX8PdmzjT2GjTvQh3tr4HL/Z+hS/7HJbfPT3n+M3W1v4oEEHKH94C2/iAb793c3eWh7uN/CbBm3xzTsb+MOvtvDZ/+olQ3B441deE6+J1jrQl3qWmoj48tE/4mdt+axalAN++hi47u2MDRtdDa1aDk8fYxsP8Ac8ODxwXXuANxuK5veKvyBhSRDnsI1gCcC4F/bLirFbt4H7jZ/ezSgefvvoEs/x9du48cdf44derDkSv8IfntzGL19v0Hm+x7XtV2zLrc+v38aNzQ18YPS5OrImqq179ks/y6GIeK3LXwX52Ra2NzcuVyLSS+vh2j18efAecPjtv96D98nn+MpQWUAv+Yvugy7vEGecQFvoQAvbCOLVhsVlPTr17et9+sHUozFtvx05gNY3in+ItzYe44OMQVFQd56PekVgP8Rbltu4X//y7gNjdujYmjDb+q6LiGTbREQru0bw7z1C5r0jdtnYwCvYevEhqpfWw5Wb8D55jG3gxLNswGvgM263v6AuIsehiCVx+vzZEh3xKn4+A6D0Ob6r1VQGw58jCC9+YeNqm8F5dTQP8W9f4Ngp/s361y29tNHma+G1ov2zIhTyV59jGw/wZr3eaGPz4OuuvaSA+kWL+/jlSVF5gS2++fcHwJNN3Kjb4k7968tccjADr+Kzg3q6B7jzxW1Y3nl4RHTOHvm6N9eEkWc5d38Qv8IfngD379Rr8fTa5ft3zrabuffJE7jfxbf3b2P7j1/V9rn+WA9wv4sP7j7Am0ee85t/2cT23TsH+4TZ/AX1sSRhSXSAn7+yhf85uo3/d0u/Ea5f5HmEv1s8+l1b2BYvcrz6ny/vAt57W8g86ubT+Ta+P+PyzvaP22dHMY7aYOsevLiNLzNJfNbiU3nL9suv38aNzW3gqDM84SjOssVrnxxfC5n7t4Fr9/BDppVpr3aFJF7FZ/dvA4+3jzvAk193aE20KjJj/FnO2B+OXgI7qMcD7txP9m6rGpOsh1by2idb+ODx7UNx+PjeGSn+fvIX3QOlwok2wuHv/p8k/u68jeR39+D94rGhVEdvoG+Ax0/pm3j/urc/Hv/1T5HJfHpBxKKPbHEE+dkWcPNOzQG+it/f8+L+j17TOMROBWb6b38AAAUf/dMDeH/1j6ZdD630F799lMRvaT2QsCS6nc4Vi3zzL5vAvS2TFN8PtN+Bih/j/S9u44MMR8uwH20hfoxXNjaxfe3ekfrRh/jnTeCDLWoSba79oY3r4e4DZA7qK823Hjp10Oi79UDCkiAa5Ou38SaObqAviF58kuyxDaXeguiRsedyv4tvM726GBq0xeufItO1l7qOXtzR05ZHn/mbdxq4lNJLa+LkszS0P+iRrm5F/vBWrUTEiw+2jn/2fbseyF90FQNVqjgljvD06VOMjY3Aal3uazt8991jrK4KmJ2d6XM7fA+e57CwMN/Xdvjzn7fgdDqwvLzU9+thbW0VMzPTfW2Hb7/9M9xuAfPzc31th//6r+9w/fpVTE5O9LUdnjzZhsfjwezsLIkI0OUdgiAIgiAIgoQl0QoGqCFXzQ5kA6Bz9VMmtQaZgKjvELQe6L0gf0HCkiAIchwksmk9EEQr9gd6L0hYEvSCkAOlkzjZgaCDBkGQsCQIghwoQRB04CJIWBIEQRDdKyXooEEQBAlLgrgM5EB1IUEQBEH7JEHCkiAIgiBacdyi8xaJSoKEJWGcVCrd18+fyWRRKBQhSXJf26FQKCKfz0PTAn1th93dBAqFIoLBUF9fbMvn8ygWC1BVX1+vh3A4gr29Mnw+DZVKpW/tkEymUKnsQxSlvl4P6XQGiUQS8XicxEP94EWTd4ijJBIJiKKISmUfDOPoqwkb5XIZkqRgZ2cXDocd+XweOzu7sFqX4XbzfbUOtrefIR7fxeLiAkqlEvL5AhjGAYax940Ncrk8JElGsVgEwziQSqWxs7MLhrHD6WT6xg6VSgWyrCAcjmJlxYp8Po9MJguHYwVOp7OvhJQkyRgaGoLTyWBnZwfRaBwOhx0s2z92KBaLEEUFmUwGdrsN6XQGqVQaKys2cJyrr/bJH3/8CxKJBKxWK/b29jA8PAK32933E3hIWBJnEgwGIYoiZmam4XQ6MDo62tPPq2kB+HwabDYrWNaJoaGhmjNJQpZV7O3tgWVdPT/q0ufzIxgMwWKxgONYTE1NAgBisTgkScHw8BBWV909feCoVCqQJAWRSBQc54LDcSimU6kUJEnB/v4+3G4Bc3O97UDC4QgURcXCwgJY1oXR0REAQDy+A1lWMDAw0PN20IWUjGw2C57nsLS0ePD/0ukMJEnB3t4eBKH3R58qigpNC4JlnccOVzs7u5BlBQD6YgSsJMkIh6NYWJgHyzoxPj4OAIhEovD7A7BarRAEoef9JglLomGq1SokSYKiKD0brdrd3YUkKRgbGwfPHwqpsxysJCmYmBiH17t+sJH0mh2qVUAQWCwsLJz5fX6/BllWMTc3hxs3rva0kOI4F0ZGRs78vkgkCklSMDU1CY9n/UBw9QpHo3M8z2J6evrcA5ksq5idnca1a1cxONhb1VWyrCIQCIJlXXA6Hed+XzQaO9gfPJ51jI31lqCIxeKQZQXT09PgONe5+18wGIIkKbBYLLh2zYvh4eGeskMkEoWq+jE8PAyeZ888UFUqFfj9AUQiUQiCAJZlSVgSxElyuRxEUUQ6nQbD2LG4uNADz3SY5jR6wt7f34ffr0HTAlhYmMeVK96ut0O5XMaTJ9vIZNLgee5YdO48CoUifD4f4vHeKRM4LqQ4TE9bXvgzugPR4PcHYLMtY3XV3fV2OBqd4zgWy8tLL/yZUqkEVfUjGo3Bal3qCTvEYjFIki6YOY7F2NiYgYO4fvBSVR+s1mWsr692vR30iKyMSqUKQWANpXj39vagqn5EIhEsLS31hB3y+QKePXuOfL4AQeBgs1kN+RhNC6BU2oMgCFhe7u1sFwlL4lLE43GIoojh4SEwjB1TU1Nd9wx6mlNGNBoDx7Gw21ca/juy2RxU1Yd0Oo2VlZWura96/vwnxGJxWK3LcLmcDUfdeqFMoH5J66w0p3Gnk4csq8hkMnC5XFhZsXblejgvzWmUVCoFWfahVCrC6WSwsmLrSiFVv4zC8xxmZ2cusaYKUBQfkskUnE4GDsdK19lhb28PkqQgkUiA41hDQuosWyqKinw+D4ZxGDq0mpGnT7drtdUOOJ3MQZmUUXZ2dqFpQUxNTUIQ3LBYLOh1SFgSDeP3+yGKIpaWFuF0Ohp+0TpFKBSBqqpYXNTrxc5LczayYdTrigSBw/x8d9QVBQJBaFoAExMT4DjWUHTuIo6WCXg865iY6I4yAVlWEAiEXpjmNMrubgKSJGNwcBAezxomJye7wg71+tmZGT06Nz4+9lJ/XyQShSwrGB0dxfr62rnlJWaiVNqDJMlIJlPgebYph6REIlnrLDGA9fXuERR6FF6D3b4Cl8v50uUN0WgMsqxgeHgEa2vCuWUV5jto+RAKhWvvheul3+dgMARNC8DpdILnha7xmyQsiTafaCWEQiEwjN3U0YlkMglRVA7qYl5WSJ0l1Or1R1evXsXwsDnrzFKpNH76SUS5vA+eN5bmNEo3lQnojq6xNGejDkSvQ52Fx7NmWgdST3NWq9VLR+fOo14m4PNpmJ+fw7VrV0y7Hnw+P/z+ABwOO1wupul1oqFQGLKsYGZmBh7PmmnrDnd2diFJMiYmJsDzHCYnJ5ouWGVZxfz8HK5fN299tn4xTcXAQPMvIu3t7cHvDyCRSMLtdsPhcKAXIWFJvKRYSUGSJBSLejsaM90OPUxz5sDz7KXSnMYjHiX4fH5EIjEsLy9ibc1cdUU//KC3xeB5tqWtcnK5HBTFnGUC6XQaoigDQNOF1GkHUobP50MkEoXdvgKOM08B/97eHkRRRjKZvHSa0yj5fB6q6kMikay1ozGPHXZ2diBJCiYnJ8HzLCYmJlr2b+3v79c6LoSxsmKDIHCmsUM2m4MkybVaQLalmZdCoQBV9WNnZxc22zIEgTfRe1HGX/6yjUwmA0HgLlUm1cihTu8PPAC329012S4SlkRbCYfDkCQRk5MTYBhHx29NNzvNaVxop6EoKgqFIpxOR0s3JyOIooxIJILFxQW4XK6XTnM2Ev2QZf2Wudvd2TKBVqQ5jZLJZCBJKkol/ZJYpy++1aOIDkdz0pxG2d1NQJYVVCpVcByLpaXO2SGbzUEUJZTLZfA8h/n5uTb+21nIsop8vgCOczU1a3AZsStJCmKxODjO1da9KpHQ67PL5XKtPnupo+/Fs2d/RTweh81mg8vFvHSZlFGi0RgCgSDm5+chCO6e6TZCwpJosqCTIUlSrXly+5tI1+t5ZmdnWpLmbOT3kCQFIyMjWF9fhcXS3otO4XAEPp8fIyOj4Hm2pdG5i9DLBNSOtR9pdZrTKHodo4yxsTF4POttE/hHhb4kyZicnADHNT/NaRS9TEDB1NQUrlzxtLXPX7m8D1mWEY/vgOPYjpbvxOM7kCT5oA613XXJwWAIqurH8vIiWNbVsfR8KBSBLHeujZvfH0AwGKy9F2zH6mD9fg2BQBCC4AbP8yQsCeIkhUIBkiQeTClpx6lcT3PWG/R2TkgdpVqtHrQfmZubx/Xrra8zy+VyePbsJxSLBfA819I0p1FKpb1aWjiGpaXFtrQfqTfwbkeas1FHpigqlpeX4PGstfzf09OcEvb22h+dO4+9vTL8fj9CoTAWFxfbYodAIAifz4/l5WWwrNM0dY6aFoSiqFhcnIfHs46BFg8hr18oGhkZAc9zbT/wnoVeJqAhEAhgcXEBXq+n5f+mXncvY39//9LdIFrhNzUtiGw2B7fbDZut+7oqkLAkWs7u7i5EUQRQBcM4mn5pRhctJUiS0pE0p1Hy+UKtziwBm80Knm9NfdWTJ0+xu5uA08l0NDp3kfiXZR8KhXytTKD57Uey2SxEUe5ImtMoxWIRiqIikUiCYZiWDB44nuZkYbebz0llMhkoig+5XA4Ohx0M0/ySFX1ErYKxsdHaAATztUgrlUpQFN/BKFmXq/mZnkKhAFGUkc/nTVGScd4hSFHU2qhIvVSj2VQqFTx58hTJZBI8z7VkzTVD/GtaEGNjoxAEN2ZmZtBtkLAk2hAtCEAURczNzcLpdDStfqWe5qzPbjb71I9EIgFZVrG/vw+Oc2FpqTmRXEVREQpFMDs7A5Z1dSzNaZSjZQJra+6mHDjK5TJkWTFFmtN41CR1cCu7mWMyzZLmNEp9qsvQ0FBtzvLL2yGfz0MUZRQKBdMKqZOkUunauNBy08ZkVqtVyLKKUEivNzejkDrJ0XGhgiBgfr45F0J/+klENBrD4uIiWNbZsTIpo4TDEWhaADbbCgRBaFvdJwlLomvQG5OL8Pn8tWa5ly8U1+uTFFgsk+A486Q5jRIKhQ9uo169evk6s1gsDkVRMTg4aNro3EUOz+8PQFX18ZAv037ErGnORhyILOtj8DyedYyMXO73N2OasxH8/gBkWcHc3Cxu3Lh2yX2mCllWEA5HTs157xbqfUAnJyfh8axden+oH+Dm52fBcWzXza0OBIIH/VWvX7/8uNBQKAy/X8PoqB617qYIoN7GLYBYLA5BEOByuUhYEsRJ9FSliGw2C4axN9Qj7DDNqfdh7CYhdZJyuQyfT0MwGKrVFa0b/tlSqYSnT5/V2ihxpkxzGuVomYDVam2oDYvekNzcac5GHIi+HoKw2WwNjcnM5wuQJAn5fPdE586jWCxCVX2Ix3dgtVobsoM+592H+fk5cJyr64TUyYNXPSNjtS5jbc34mMxUSm+rNTg4AJ7nmhYJ7wT1caGxWAxLS0sN2SGbzeL5859QKpXA81xXTgY7fJYcNC2AcnkfgiA0LdtFwpLoKWKxGERRxOjoCBjGfuFUg25Mcxolk8lCUVRkszlDN+m3t58jHt+B3W6Dy9V90bnzqJcJ6IeGi8sEDtOcRfA82xOz6+vkcjnIsopcLvfCMZl6mlNBKBQGy7ItqdXsFMlkCrKs1MaFOmG1Wi8QUqmakBqCILBdM9nF2KEhD1n2IZNJw+VyXrj3lUoliKKMdDoNnuc62sqo2Rxv48a88DBdrzd3uRi4XM6WX4pqF/H4DgKBICyWaQiCYNrDNAlLoqP4fD6IogirdRlOp+NUuiMQCEJV/bDZluFyuTA83JtjsOrp/cHBAayuCpidPV5X5Pf7EQiEMDU1VWuLMdWTdqhPKZmYmMCVK16MjR1GnSqVSi3NGe3aNKdR6u2BhoeHsb6+dqpuVk+Xqj0RnbuIepnA+Pg4PJ61Y2UvxWIRkqQgnc40fZKU2Tg6LvSsMZmq6oPfH4DLxcDpZHpGSJ3k+LjQ1VPCql4GMTc3B5Z1dc142Uapj+VlWQ48z5vufgEJS6Lj6De7JUQiETCMHTabtafSnI2gaYHauMEZXLt2tXbBQzoYu9dL0bnzOKtMoJfSnI06EFlWsbAwD49nDZlMtmfSnEbZ36/A7/cfGxeqKCo0LQiWdXakX26nCAbDtTrUGXg860gkErV6cwt4nu2ZBtsXUS8TODouNBqNQVF8GB4eAs+zmJub63k7lEolaFoQyWQKbre7JV02SFgSXY/eW0xEKpXE/n4Fa2vuvhBSJ9HrzPQ+f/rNSL6n0pxGyWaztfGQmVqjeXdPpTmNOxC9D2goFMHQ0BBWV4Wejs6dx+G40Awslkm43e62N5o3y8FLVf2IRqMYGhrG2prbVKN020V9XGgstoOBgQG43XxPlUkZJZVKQ9MCGBgYhNfr7ViT96MMgiBMwuzsLP7mb/4GExMT8HrX+lJUAsDY2BjW11cxPj6OtTV3X4pKAJiamsK1a1cwMAB4PKt9KSoBYHR0BKurboyMDOPKFU9fikoAtS4KXlQqFbjdQl+KSgAYHh6G282jWgWuXvX0pagEUPMTHgwPD+PqVW9fikoAmJmZxtWrXpRKReTzeVP8TiQsCRMKq3FQHB0YGhrqmcs5L2sHAqbv00p2aLcdBmifrK0HWhMwVds9+jQIwqT0aP39pSAHCgC0IAiC6AKxTyYgSFARBEEHDYIgSFgSBEEQRH8ewckEoEAECUuCIAiCIAiChCVB0EmcoPVAdHw10HI4AtUEEIfvhVm6R5KwJAiCIEhQEbQeCBKWBEGQ4yA7EARBmCeUT8KSIAdqZivQ9Vei7jYoBUwQ5+yTZAMzQcKSIAiCHChBB41utQSZgIQlQbx4wyQHShsmOVCCoIMGQcKSIAiCHChB64FsQJCwJAiCIAiCIAgSlkRPQblPgiBofyAIw28F9bEkCIIgCILoBh7iLcssLJZZvPU1WYOEJUEQRE9AkbpDqMBQv9RGdmj5evj6bVgst4H7SWQySXz2Oln7RQyTCQiCIAiC6F6B3SLEhKW9VQAAIABJREFUj/HKnS18sJXEb9108DQKRSyJ/kN5G+/8x+zBn98/UYz+ID66padD6n9e+VBp6a/alpqZr9+G5dbHkI1utJajNriFj8R2fGitssNhistimYXlnYeN2e2YLd7GN91qh5f5XDtih9Yjf3irsdRnx96NlmySl9/rOrAeWrVNyl99ju279y4pKtvvL8wCRSwJE55AB1rnQJW38Y74AL9wJ/E2BwSf3MLvwxv4dEr/+sXcxpeZT/Fat5/Ea3zzzize/ALAtZvGf+juA2Q+ebVHVtur+CyTxGcHIvM2Xrm+hW/fM7QY4L1n/HubISpbds5wv4tvM+8eE1U3/v5jvPHoXfCms0Mb+Ppt3PjjBu5c227s53rq3bj8Xtcr62H7x214r2/jLctt3L/Us7XPX5gJilgSpqRVDvS72AMAt/Hz2r5gv3YPvwDwp5iRSNU2vsdNeHvIeb6JB8jcv238Z54+Bq57e3TVvYpf3m0gmvFsCzc97XSe7Ut18W/82vA6b7cdWn7gEj/GK3eALx/9I37WyM914N1oXULj8ntd+9+LVqFg+zGwvfkYv8zo9ZWZ+7exvblhMIrdY/6ChCVBnL1RBAsARm/CfimHs43HTzZxo57aMJo+Niuvf9pwdEV+toXtzY02p3YG2tQM+iH+7QsvfvOGMae4/eM27t85THP1zm3Rh3hrYxM3/8lYtLITdmjdeniItzY+x2+2Go8ydebdaJW4vvxe12vvxZ37R9bC65/iy7vA/X9/2FIbXv69oHZDBNEZSo8RvMzPud/Ft/WTa2YLH2ATN7pdXDYI/96j2vMnkdm6B2xu9EjdkIKPbm3iZ1uPDNdTvfZJ8tAW92/j/p3udqLfvFMXA7dxH7fxy9f7zQ4KPrp1G7j/6FI1de1/N1oYun2Jva531gMH703g8bPTn6HXSGS6j/0FCUuij+Dw83kvgAf4rr5XKPfxJwC/WNIjd3rBvpGiew6/ffQAd558jq/E3rKSLjAMFNy738W3929j+49fdfdmWW8n8q8nBUXtYo+RCz2vf4of7nmNRTIuKyNanAI+Kgi+vPsAbx5ZA4bXRBvs0DLEr/CHJzgSbdvA+/Wva2vA8P7QK+/GOXtdX6wHAK/97h6wefvw8xY/xvtHsxq1C1svPkD0rr8gYUn0PfZrj/APM8CfxNqt8CMXeQ7ZxvdP+8cm8rOtM/7rFrb7YAPU6+keANjG+xvn3OZ9vG0KcdDOLNdrnzzAnVNroMfXxLEIUy3KdA24cz95omSkv/aH8zHLemhx5Pb+xuHesLGJm2dEtLd/3KblQMKS6Gd+/koSn/zt4Z+jopJ/7x7uwIufXTEgyD7cxP1rv8Yb7u62B//eI2SO3P597Xf34MUGvC98LgUf/dMDeH/1hqFavEu7jVZG6k6JiSQymbrjeBW/v+cFbnoNPN9D/PPmNu78rx65ESxu4/GRNWB8TfSYHU69K0b3h/a8G207fJ7Y68y3Hlp46nr902P7w7EG6e538cFdY6nxXvEXRqB2QwRx8uW/ew+fuV/gNG5t4P0nt/Fl5t2ecBxH+eZfNoF7WxdfXhA/xisbm9i++wCZXmozc8opAh9svcApfv02LHce6G1IWjiVY6Atl8Lra9uLD7YeHawBQ2uiTXZouZB42f2hre9GtU3r4fheZ7710KkD2Md4/4vb+CDDmcBfmKdBOglLwnQMDAx0bJN484+/xg+PXr3YYUDvZdZ6pzHQ/lt+9RZE5zyb/OEt3NjcBuDtkmkULyGw39HHuJ33jAc9QHEbX2aSbepVV23Rs9afpZb6fd34muiMHdoBh98+ShreH9r9brR84sx5e53p1kMVnbkMreCjv/8cvzlyAOukvxgw0cTXgapZ7qcTRI0ff/wR09OTWFxc7Gs7fP/9/4XdboPNZu1rO/z5z4/hdvOYnZ3tazt899334DgWi4sLfW2H//7v73D1qhdTU1N9bwePZw0zMzN9bYdvv/0egsBhYWG+r+0gijKWl61YWVnp+O9CNZaEKaHjjrlOoARhojeDTEAQZ/pN6mNJEARBkKBq1H3SwbN2+CY7EGaEhCVBEF3hRAkyAkGcOm7ReYuEJUEQBEG8hJQgExB06CRhSRAEQRBE0+Q16WuChCVBEARBEARBwpIg2noSp6M4QRAXQflPou4vaD2QsCQIwrj7pP0SVFNHgoqg9UD75IsEtnn2SRKWhCnJZLJ9/fy5XB6FQgGxWLyv7VCpVJDP5xEKhfvaDslkCnt7ZYTDkb62Q7FYxN5eCZoW7Ps9slgs9v3+kMlkUC7vIR7vbzuUy2Xs7u4inU6bQ+TS5B3CbEQiEUiSiPHxcTCMHRMTE30lpCRJQSQShc1mRTabRam015eTJcLhCBTFh8nJCRSLRQAAz3N9NXmmWCxCFGVks1msrNiQTCaRzxfB8yyWlvprMpWiqNC0IJaWFpHN5rC/vw+ed2Fpaamv7CBJMsLhKMbHx1EsFjE6Ooq1NTempy19Y4O9vT1IkoLd3QSs1mUkk0lUq1Wsrgp9N4lI04Lw+fyYnragVCphfn4Bbre7o36ThCVhYkeiQJIkrKxY4XQyPV97qQspFQsLC+A4F0ZGRgAAsVgMkqRgfHwcHs8axsbGetoOyWQKkiRjaGgIPM9ienoaABAMhiBJCiyWKVy9egUjI8M9bQdZVhEIBMCyLjidzMF/j8d3IEkyRkdH4fGsYXx8vKftEIvFIcsKpqenwXGug+cNhcKQZQUTExO4csXT8+9FJBKDqvowPDwMnmcxNzeLarUKvz8AVVUxNzeH69ev9rxf8PsD8Pv9WFlZgcvFYGho6GD/lGUFFosFHs/awf7Zq+zuJiBJMsbGxsHzLKamJmtCMwC/PwBBECAIAglLgjgrYiNJImKxOBjGDqt1uceFFHdu5MHv16AoPlity1hfX+3Jz1oUFWQyGfA8i+XlpTMjFT6fhlAojKWlRXg8az0ppCRJwczMNDiOxfj42DmRigAURcXiom6HXjt4ZTIZiKKMSqUKQWDPnBVfLpfh82kIBkNYXFyA17vec+shny/g2bPnyOcLEAQONpv11PcUCgWoqh87O7uw2awQBK7n7LCzswtZ1g/YPM9icnLy1PdUKhX4fH4EAkHYbFa43ULP2SGXy0OSZBSLRfD82ZmsYrEIvz+ATCYLt9vd9vnhJCyJriCRSEAURVQqFTCMHTMz013/TIVCEZKkpzl5njOU2iwUClAUH5LJJJxOBg6HvSc+33qak2Wdx6Jz55FOZ6AoKnK5PBjGAYbpfjuk0xlIkoRqVU/5z86+OKVXLJagqj7s7OyCYeyGbGd26mnORCIBjmPPFFInyWazUBQfMpkMHI7esAMAPH26XftsHXA6D6Nz5++TSciygnJ5HxznOvNw1n1CKgdRlFEq7YHnWUMlQblcDrKsIpfLweVyGlpDZudomRTHsXA4XiwWk8kUNC2I4eFhuN3uMw9nJCyJvicYDEIURczMTMPpdGB0dLQrn0NPcwZraU7HJYR2EpKkAKhibW21a+urzktzNvLzkqRgeHgIq6vurjxw7O3tQRRlJJNJ8Dx3qah8KpWCJCnY39+H2+3G3Fx31pn5/Rr8fg12+wpcLicGBxu7X6qXCSgYHByA2y1gbm62K+2gqj4Eg2HMzEyDZV0HaU6jHC0T8Ho950a9zcz+/j5kWUE0GgPHsbDbG4+67ezsHuwP6+trmJzsznr988qkGvl5TQvCarVCEISW+00SlkTXUa1WIUkSFEWB0+noqqidXi+pYnZWT3O+bF1YOBw5SJt6PGsYHu6OukM9OndxmrNRQSLLep3ZjRvdU2fm8+lCyuG4nJA6SSQShSQpmJqahMezjtHR7qgzqwuAiYnz05yNoGkByLKKmZlpXL9+9aXt2j477ECWVQA4N83ZiDDz+TQEAkEsLs7D6/V0zXsRCoWhKD4sLS2CZV0vXU8dCISgKArm5+fh8ax1zXpIJpMQReWgrvZlAgiVSgV+fwCRSBSCIIBlWRKWBHESPUUiIp1Og2Hspr4tnE5nIIrSgcMwkuZszIH4EQyGsbJihSDwprXDZdKcRikUigdpYat1GW63ee2ws6NH1iYnJ8FxbFMjKboD0eD3B2CzWbG6Kpj8HZZrnQ9YzM83r/NBsViCz+dHNBqD1bqE1VW3ae1QLpfx5Mk2MpkMBIG7VHTuPI6XCazA6XSa1g56JkbGyMgIeJ6FxWJp6t6jqj5Eo3E4HHawrHntcJkyqUbeOU0L1t45AcvLzb+3QMKS6Hri8ThEUcTw8BAYxtFw2qjVQkpPc6bA82xLLx9lszkoioJcLg+OY01XX+X3a/D5mhedu+iUL8sq9vb2wLIuU134ymZzkCQJe3tl8DyH+fm5lv1b+Xwesqwik8mCZc1VZ7a/vw9JUhCLXT7NaZRUKgVZVlEqleB0MlhZsZnqvXj27K+Ix+Ow2WxwuZiW3WaOx3cgywoGBgYgCALm581TJlAoFCCKMnK5fMtbaaXTGciyYto2brKsIBAIXbpMyvjhdheBQBCTk1MQBKGpIp6EJdEz+P1+iKKIpaVFOJ2OFxa6txqfzw+/PwCHww6Xi2lb+qVeZzYyMgKPZ7XjfUD1NKeMiYkJ8DzXtjqnepnAxMQ4PJ51TEx0ri2PLqRkxGI7NSHVPnFTb0syODgEj2f1pdPML0swGIKq+rG8rKc521W+EYlEIcsKRkdHsb6+1vEDqKYFao59AizLtq1OWtOCkGXFFGUC1WoVsqwiGAyB41xgGEfb/u1oNHZsfxgb62y9fjQagyw3r0yqkfdR0wJwOp3geaEpfpOEJdFT6KlWCeFwCAzj6EiU5miak+fZjgm7QCAIWVaxuDgPj2e97e1o9Ohca9KcjQg6v1+DpgWwsDCPK1e8HfgcQvD5fFheXmqrkDrLgeh1qLPweNbafvA6nubkYLFMtd0G9TIBn0/D/Pwcrl270vbfQa+bk2sN3rmONLovlUpQ1c6WCehCSsHs7GxNSHVG2NXbuNlsy1hba38bt3Q6DVGUATS/TKoRv+n3B5BIJOF2u+FwvJzAJ2FJ9CT6LVkRxWIJDGNvy+3QbDYHUZRQLrc+zdmoA4nH47XIaevrig7TnHFwnKulac5GPhtV9SGVSsNuX2lLfVUikYAkKRgdHQHHdUZInXYg5VqdWQx2uw0cx7b83zya5hQEFouLnZ8YlM/nD9p2ray0xw4A8MMPTw5u/7czOnf+PpmulQkU21YmkEqlIUkyBgYGwPOsKSblHLZxS9XauLV+zyqVSpAkpS1lUsZFbgaaFgAwALfbfelgAAlLoqcJh8MQRRFTU5NgGHtLppTU05zxuJ7mNFsN16EDUVAul+F285iba43o7VSa0yj128cDA4AgcC2JoubzegPjfL5g2hGUmUwGkqSgVCq17HfsZJrTKLu7CciygkqlCp5nW/ZZ/fSThGg0isXFRbCs03RTgo6XCaxiaqr5h6BSqQRRlJFOp8FxrCmHXdSj6sAA1tfdTa07PEqnyqSMEo3GoGlBLCzMQxDcDftNEpZEXyDLMiRJbHrz5EBAn9O6vLwMlnWavt2PXlckY3JyEh7PWtP6mZkhzdno51bvn3n1qrcpn5veBktBOByuNTA2fxssvQ+oPhZOHw851rR1Vk9z8jxr+n6zepmAgqmpKVy54mna7xsKheH3axgdHQXHsR1JcxqllWUCquqHpmlgGAYul/nH8+p9QNWmt3GrX6DqdJmUUfx+vV2VILjB8zwJS4I4SaFQgCSJB1NKXubWtD4JSMHY2GhtTutU19ihWq0e9E+0Wpextnb5+qp8vlCLzuVNG507P4KyB5/Ph0gkhqWlxZcakxkOR6EoKubn58Bxrq5r3F+vM1teXnqpMZmplF4vNjg4AJ7nuqph/d5eGT6fH+Fw+GBM5mXJZrN4/vyng4hwN42ibWaZQP0iocUyBY5jO3qBrlGOt3GzvdSYzGw2C1GUTVUm1Yjf1LQgstkc3G43bLYXZ+RIWBJ9x+7uLkRRBFAFwzgauo2Zz+chijIKhWJLU2ftcSAFKIqKdDoNl4tpaJ6snuZUEAqFwbLmTHMaJZ3W68wKhQKcTgfsduORxlQqVRNSg10npE47kCJUVUUi0fi40KNpTp7nunqUYCaTgaL4kMvl4HDYG17bT548xe5uAi4XA6eT6Zpm3Kf3yXqZQAUcx2FpaaEBG2YhSYcXlLp1AlJdFMqyiny+0PCYzHK5DFlWTF0mZTyYkoSmBTE2NgpBcF9YG0vCkuhbAoEARFHE3NwsnE7Hhf3j9DSnjHA4Co5z9cyM7roDqY/BM1JfFY1GIUkq5uf125zdOlbz9HPFDto0vai+qlgsQpIUpNMZ8DzbEzOZ6yST+rjQarVqaExmPc3pdOpCyuxpTqMcHReqz1m+2A6yrCAcjmBubg4s6zR9mtMojZQJlMtlSJKCnZ1dcJyrq4XUSfToq3zQrupF0ddAIAhV9cNq7Y4yKaPo4yEDsNlWIAjCmX6ThCXR1+jzaCX4/X4wjOPMG8z6nFZf16Y5jVKfLzwzMwOvd/1UO5puTnMapVqtwu/XoKo+zM3N4fr10+MhFUWFpgXhcjnhdDp6Rkidte5lWYHFYoHHs35qrF43pzkbwe8PQJYVzM3N4saNa2cI0BgUxYehoSFwHNtVaU6jlMt6mUAodH6ZgKbp9eY2mxUs6+x4H+FWoWlBKIqCxcWFM9u41Q/q3Vgm1Yjf9PsDiMXiEAQBLpeLhCVBnES/JSshl8vC4bBjYWH+IM05NDRUm9M63fN2qDuQcDiClZUV8DyLYrEESeqNNKdR8vkCVNWHRCIBq9UKQeAQi8VrQmsaPO9qSYcBMzoQn09DMBiEzWaD280jk9HrxSqV7k9zGqVY1MeFxuM7sFqtcLt5FApFbG8/O6gv7qXo3EX75MkygXoD/rGx8ZqQmux5O5RKJSiKPj62frO7l8qkjJLN5qBpAZTL+xAEAUtLSyQsCeIkeppXQqGQr7XmEfpCSJ12IFnIsoJUKo1qtQqWdfZUmtMoiUTiYBzg0NAwVleFvhBSJ8nlcpBlFclksjYSkDfViMh2kUymIMsKMpksBgYAh8MBp5PB8PBQX9mhfsja369gcHAQq6uC6UYjtgO9J6eCbDYLoAqe53qqTMoo8fgOAoEgLJZprK6ukrAkiLP4z//8TwhCb6Z7G+HRo/8Gx7F9KSKO8n/+z39hY+NG28ZRmtkOV696MDs729d2+NOf/hsc52zowltvrodHuHlzo2fLIIzyv//3I1y54unJMohG+O67x7h+/ToGQRDEKfohzWmEoaGhnq0pbdQOBDA4OIjBQbLF0NAQxscnyA70XhzY4aLLn/1CvQyChCVBEARhiD6rhHgBlOwjaD0cs0DNBCQsCYK4SEqQCQhyoAStB8LwwZOEJUEQ5DjIDsQlHChB0Ho4DQlLgiAhQRBEo7sDbQ8EQcKSIIyfQOkISg6UIAjC2B5J+yQJS4L4/9s7l9g2jjSP/2XJelKiXpbErrapqkmsGSeQgw3gOexpLg6QBXIxrBkvEAwQ2EcPfI0hBItA8FyN+LCHBAMMDMQ7FoxZGBgDzmVOOawnViLBDobJuFoPdrfeEiVKpCQ+9tCUSOthNSl2s0l+PyCHSKbkLn9d37/q+9dXBJHHQoPGgBYaBEEcPz+kSVgSBCVQgrAtsWkICJoniTdCwpIgiKNlBOkISqAEQQsNgoQlQRAEiUqCIGgB7vZCg4QlQRAkqChxEAUkUILImS1pCDKQsCQIgiAIEhI0DkRRFuAkLAmCOGaioMRBUDwQBGEPEpYEcWgCraEESuyD4oHIiQYKB7KIEIe8F9RuiCDKlG/wic8Pn8+PT55UaQJ9ch0+nx8+33U8rfJomLx7yRqLS/cwSeNQ9ePg5vxA8eDOPHmyZ3E3HkhYEkS58eQ6fL6rwMMIotEI/vSho3sSnhyCpzf88A0Bj6IRRKNf4YOqDYYpfHHJj3e//hgvohFEn91Ev8PJ05sLDXfHgeYHei/cmydP+CwliIc6ytIEUZoVaEHIe3h/aAJ3JiL4g6jeXYgr4yN4Ea1i8bAnsAdx++Iool9epnFwcRw8WwIuwfzgxXmykt6LEz1LifIF7VgSRAlW03/71o8bf9/97zrG7Iqqx/cRujbi4iSRdmU8vrhkt0QzhcdfhzD0X+6LSqcS6F6Jy+eHz3cJX0i7n/wGf3kwgDufVoaofHrDnzMOfvhufFOV47D/vcjH6uH2/OCoqNyzuvjztLxUUjyc7FnczxckLAmiBDsSU/jbt4P4X4zg899E8OVvRvFrjOK/v70H08anQy9DGHgntOeX8fn8eP/uVPkOtLyH932DuP2j3Q+E8MOPA3jvp+sFirGCI8Kxn9x/6xmiUatM9WIEuD1oM4HKEMYxCDy+VEDy9dp7AXzwZWRvHKLRUQw9uGpvsVGCcXBjl+7pjUH8+eJVDOTxGbfnB6d3bgdGJnJiwqblpQTx4Nz8eLJncT9fUIN0gnCfpcf4v20g0PERAgCAy/iP3gFg+z7Glo4XpaFxIDQ8jt/uTrYPryI0PFimBv0pfPG7+/j9xATuXMhnog3h9suhvYTz6FrIvhjzOP0ffWxfSPxzHCGM4s8YzYzFBO5cGMWViji4chm/vVa94zB59xKuYBTPP72Y1/tUSfPD5E8TuHg+mP8HKykeTvQs7scD9bEkiFIQHYcJ4FxLsOAfMfQwZ+X+4Vd4dA14+NdvynAwgvjDs2cFlGmu4lGO3+iDL0cxhFH8pQJOv1qlqyH7h5EujODRrWB2PP9nBAM/3sdjWebjkPHRfvahN8fB0X6eT65bBzUK9AdWyvwQehnCw6HsTlteYqiS4uGEz1KKeCBhSRCHTxWO/vTpjULKEUEMXATGfzr42YF3Bqrjn0UM4CImEDowqQ7gvV+W+bM9uY53X47YN+n/8iIGfhxH6MA3BjHgqKfKoQQq7+H9jIh4dziEgf/8yJ6PtmTj4NAYDAGPCjrFXKr5wZl4eM0a8fAqHg7ZFJeVFA8nepbSxAP1sSQItwkO4dcAzJXHGU/lFMZWQkD9x/i3LmCv39gRBxc++HQEGL6a9RTKe7j9YAC//yjo4F/a5WOfGYFxuBfoMj4bAW7/LlsKmrw7jIcXPsZHDiYNZ2+cyRzS+OvQAVFpHew5wkMqbuLOtVFcyYmVp38czm/H01OLhpt4viskJkaA4cFsDLwpJko0Dk74LCcf30cIo7iy64kbHN77/11RZR1yOtz64f784NLx+A+/wouRgexOmwfjwal34rhn8VY8WFC7IYJwVVBdxvXBEUxPDOOzvw9bX6ofwef/fjPjucwwHsIkLh/ctRA38fzhOHyDftzOfGnooZOtJGpcOKgQwg+HHN4JvQwBODgB9t96hkcv/XjXlxk/XMWjMm499PRG5vDSj1fhe5D54rXc9iIh/PBPAOKwXZ0J3Lk0CJ8v84ULI3jxrAJOw4qbeDRyH+/ui4GjYsL9cXBGUPXfeoborX2LrMFx3DlwcMXatf9AlHp+KG2vIe/Eg3MHuuw9i1fiIfN2pNN0MRVB7Gd8fBzd3R1ob293/XdP3r2UX0nUQcbGxnHunIru7i6XxZYft9+ZwPNbQU/Ew/Pn32Ng4G349mZ3t/gGn/iG8d7EM0/0Lf3uuzG89dYv0N7udz0GvBQTY2PjCAbPoqur09lfdJiwPFJsliYefvWrAbS0tLjwHlhNvncbfHspHv7xjzGcP/8W/P4293+5h+Lh559fgTGVdiwJwu0V6HET6OfDwJ0Jb+w6laQRtLyH2w+u4k40WPUxOHl3GA+vjeBPnvGGuRAQT67DNzRq7druigbPxUTp9mOe/nEYGJnwTFnX8XkyEw8DIxN4/iHNEV6PB4BK4QThHUEF4OkNa1VerbfqZFsQPfOcH8r1hYa8hytff1wZpW0bz/r+4LB1SOHCCF5Ev8qxNng3JhxH3MTz6Osi6wpyBHcFLzSe3vDjygPAsrpEcv7tvRcPJbuJyXPxkBkPKoUTxEEmJsbR2dmBjo72qh6H778fx9mz7pfCvcbz59/j/Pm30drqq+px+O677/HWW8KVUriXGRv7AcHgOedL4WXwXgwMnIfP11Ll78UY3n67RKVwD7FbCqdT4QRBEARB5A1tSxG5UIN0gnjzK0JDQFA8EARhV2bTEID6WBIEQRAECYlCl1s1NA7EQUhYEgRBCZSgeMhPUlEZmCAOeS9IWBIEJdDjR4GGgeJhN22QI4AgaJ48BhKWBEEcuwIlQUVjQAmU4oGgeZKEJUGcIHFQAiUIgqCFBkHCkiAIghIoQRAECUuC8A6xWLzqxyCZTGJnZ6fqxyGVSmFzc5PiIZnC9vY2xUMqhVQqRYutNBCPb1E8pFJIJBJVPw6JRJLaDRHEUXR0dGJubg5TU9NVOWFsb29DykkkEglMTc1A142qjQXDMLG1tY1w2ICmTVWl0I5GNxAK/Yyamhpo2hRmZnRU46Vt1vswje3tHWjaFGZn56r2vZidncPW1haklJieDlel0I7FYvjXvyQA4NUrDaY5W6ULjDRmZsJYW1tDbW0tXelIEG9KIpqmwTQNMKagr6+3Kp5b1w3ouolgMAjOOeLxOKSUiEQiYCxQNdc7Li0tQ9dNtLa2gnOOpqYmaJrEzEwYjClQlL6qeAfCYQPLyyvgnENVVcTjcWiahuXlZTAWwJkz3VUjpHTdQCCggHOOWCwGKSW2tuJgTKmaay5XVyPQdQMNDY3gnKOhoQGapmFxcRGMBdDTc6bixyCVSiEcNjA3Nw/OOYLBIKLRKDRNYnNzE4wF0NHRURXxMD+/AF030d3dBc4FGhoaSFgSxHGsr69D0yRisXhmwqjM+8MtIWWgrc0Pzjmam5tf+/7y8jKklDh1qgaMKRV7P/DGxgZ03UQikYQQAl1dXQe+L6XExkYUjCno7KzMBGKas9B1E4piCamDCkkhAAAJuUlEQVS6urrXvr+ysgIpJYA0GAugtbW1IsdhZWUVum6iqakRnIsDzzk/Pw8pJZqaGqGqChobGytyHGKxOHTdQCwWhxACPT09+wTnKjRNQzKZAGMBtLVV5r3ZWSHVvSesc1lYWICUEg0N9WBMQXNzU0WOw9raOnTdwKlTtRBCoL09mxdJWBKE7Qklm0AYU9DUVBkJJBrdgK4bSKVS4PygkNqPruuQUqKzswOqqhwQHOVKIpGArhtYXFyGEAKqqr7xzy8uLkJKifr602AscECIl7eQMtDU1AwhBHw+3xv/vGEYkFKivd0PVVVw+vTpChFSMei6gXh8C5wfFFL7mZqagpQSgUAfVFVBTYX0JEqn0wiHdczOzoFzgWAweMyCxISmSbS2toIxBQ0N9RUxDpHIGgzDRG1tHTjnrwmpw5ienoaUEr29Z6CqDKdOVYbzcGtrG7puYH19HZwLBAKBA3+GhCVB5MnU1BQ0TaKvrxeqyso2geSWOYUQYIzl9VlN02AYlk0gEChvm8D+Mmc+YnlmZgZSSvT0nIGqKmWbQDY3LSG1tbUNIQTOnLFf0kylUtA0DTMzM2VvE8gtcwohcO7cOdufzdoElsCYUvY2gcPKnHbFqKZpmJqaAmMBMKaUsZDaQjhsIhqNQgiBvj77sb29vQ1N07CwsFARNoH9Nqmjch8JS4IocLLRNImlpfJMIMeVOe1i2QQ0xGKxsrQJHFfmzDeBzM/Pg7EAent7yk5Izc/Pg/P8hNR+sjaBDTAWKDubwHFlTvtxtQJNk0iny9MmsLa2Bl03Dy1z5rdY2YSmaVhbWwNjAXR1dZbVOITDBnTdAOccnPOCf04kEoGUEslkAooSgN9fXjaBpaUl6Lp5pE2KhCVBFJHV1VVIKZFKJcGYgrY2byeQlZWVjJCyV+a0n5DnoWkSjY0NGZuAt31F+ZY5800gicQOGFM8n0Dm5uah6yZ6enrAOUd9fXHKluVmE4hELCFVV1cHIQT8/uIcxDEMA5om4fe3QVWZ520C2TJnFJzzQ8uchQoTKSVqa2uhqgG0tHjbn724aAkpv98PIUTR5rPZ2VlIKdHa6isLm0DWJpWGEAKdnfYWBiQsCaIImKYJKa0EwligaAm6WJykzJkPlk1AQ19fjydtAicpc+abQDRNoqWlBaqqFLzz5ZyQikDXTZw+XQ/OedGE1H6yNoFuMMZQW+stm4BV5jQQjW7kXebMJ+ayNoEAFCUAL7Jb5uzv70d/f78j7244HIaUEt3dnWCMoa6u1lNjsL4eha6bANLg3L6Qyod0Oo3JyUlMTk561iaws2P5zQuxSZGwJIgiJ5DJyUlMT097JoFky5wL4Jw7JqT2J2tNk1hcXPKUryi3zCmEcEX8a5oGTdOgqoonEkg8vgVdN7CxsQkhBHp7nffGetUmUKwyp128ahNYXFyCYdgvc56URCIBKSVmZ2fBWMATbdx2dnYQDhtYXY2Ac563kCpssb9rE4iAMcUzNoFdmxRjDJxz1NbmL/5JWBKEAwlE0zREo+uZBFKaCcOpMqddvGITcKrMaZfdfoel7gMaDuvQdRNCCPT395fg3yECTdOws7NdUpuAVeY00N7esdef1N3fb9kETp8+DVUtnU0gGrV25/ItcxaL9fV1T/QBNYxZGIYBVVXR31+YkDoJS0tL0DSJU6dOlbSN2/KyZZNqaWkG5yezSZGwJAgHE4imSdTV1YExBS0t7iQQt8qc9lfAlk2gra0Vqqq4JnDdKHPmN3GXpg/owsIiDMNER0cHOBcl77NYKpuAVea0bpByqsyZD6WyCezs7GTKnKsFlTmLTan6gGaFVAs450Xzmxe+8AtD0yS6ujrBmHtt3DY3N6HrZlFtUiQsCcKFBKJpGrq7u6CqimMr4ng8Dl03XS1z2iW3/YiqKo7bBNwuc+aDW31A19fXM36xGgghPHcTyK5NgDEFquqcTSC3zCmEgKJ4x9O2s7MDKaVrNoFilDmdwq0+oBsblpDa2dmBEALd3d7p6JG97c103CaQTKag6zrm5xeLbpMiYUkQLiUQTdMwNzcLxpSiJpB02hIrhmGC89KUOfNZHUspsb6+7kj7kVKXOe1P6klIKWGaBhSluH1At7etk72RyBo495aQ2o/TNgHDMKHrJs6eLU2Z0y5O2wSKWeZ0EievC00mk9B1AwsLi+Bc4OzZs559L163CQQKbvd0FE7bpEhYEoSLrK2tQdMktra2MxPGycrUCwuL0HUTnZ3eKHPaZbf9SF1dLRg7efuR3DKnEL8om3t6o9EopJRF6wOaFVJnwTkvm2btr9sEAicWPpaQMtDS4oMQwvPtbXYptk1gt8y5vb0Dzrlj3SCKTbH7gM7OzsMwDPT29oFzXja3QxX7trfV1QgMw7JJCSEcu3aThCVBlIC5uTlIKdHS0gzGAnkLQq+XOe2SbT9SmE3Ay2XO/BYIC5DyFRobG8FYIO+d1qWlZRiGCZ+vFZzzshFS+zmpTcAqcxpIJBLg3Ftlznw4qU1gd3dufn4RQnh7d+7NC6VsH1DGGOrr8xOEq6sR6LqBhoYGcC7K9v7yrE2gsNve3LZJkbAkiBIyOTkJTZNQlABU9XgTfTmVOfMRh7s2AUVR0NdnzyaQW+bkXFTEXbz5Xhe6sbEBXTeRSCQhxPH3vJcDuzYB67rQAAKBPlufCYcNLC4ugXNetkIql1gsBk3TsLq6mpdNILfMKYQo+7vbC+kDGovFoesGYrE4OOee8psXytbWFqSUeV0Xmk6noeuG6zYpEpYEUWIsX5HEysoKGFOOTCC7QurcuXPo7++vCCGVi12bQLmWOfNJIMf1AU0krAbGi4vLEEJAVdWKey+yNoFNMKYcaROw7nk30ddXXmVOu9i1CVi7cybq650tc5YKO31A0+k0wmEdpjkHIQSCwWDFvRdWG7dXSKfTUJTAkW3csjapTnDOXbVJkbAkCI+wsrICKSWANBhT0NpqJZClpWXouonW1vIuc9plbm4OmibR3NwExrLtRyqlzJlfApFIpVJgLJtAdoVUIBA40T3v5ULWJvD6daHZMmcjOOcVJ6T2k2sTYEzB6dN1ewtTq+l9zHPdIJzgqD6g8/MLMAwTXV1d4Fx47rarYmO1cXuVsQlk27itra3DMEzU1NSA89LYpEhYEoTHMAwj479sQiqV3mtgXAllznywbALW9ZDpNCqqzJl/ArHu3U4mk2hutk72nvRAQ7kxPT29J6xSqRTi8S0IUbx73suBXJuAogSQTCZhmrPgnHu6G4QT7PYBbWtrRSKRQG2tdQFCsU9Qe5nc2956e3uQTCYRiaxBCFG0e94L4f8BIXK2Np6qwLQAAAAASUVORK5CYII=;movable=0;resizable=0;rotatable=0;deletable=0;editable=0;locked=1;connectable=0;" vertex="1" parent="1">
          <mxGeometry x="60" y="200" width="662" height="420" as="geometry" />
        </mxCell>
        <mxCell id="ROxHBCijPqA-K5Wzq0nR-2" value="" style="shape=flexArrow;endArrow=classic;html=1;rounded=0;fillColor=#FF0000;strokeColor=none;fillStyle=solid;fontColor=default;labelBackgroundColor=default;gradientColor=none;opacity=40;" edge="1" parent="1">
          <mxGeometry width="50" height="50" relative="1" as="geometry">
            <mxPoint x="300" y="250" as="sourcePoint" />
            <mxPoint x="590" y="530" as="targetPoint" />
          </mxGeometry>
        </mxCell>
        <mxCell id="ROxHBCijPqA-K5Wzq0nR-8" value="CR_3_0_5_5" style="edgeLabel;html=1;align=center;verticalAlign=middle;resizable=0;points=[];labelBackgroundColor=#FFFFFF;" vertex="1" connectable="0" parent="ROxHBCijPqA-K5Wzq0nR-2">
          <mxGeometry x="-0.0875" y="-1" relative="1" as="geometry">
            <mxPoint as="offset" />
          </mxGeometry>
        </mxCell>
        <mxCell id="ROxHBCijPqA-K5Wzq0nR-5" value="" style="shape=flexArrow;endArrow=classic;html=1;rounded=0;fillColor=#FF0000;strokeColor=none;fillStyle=solid;fontColor=default;labelBackgroundColor=default;gradientColor=none;opacity=40;" edge="1" parent="1">
          <mxGeometry width="50" height="50" relative="1" as="geometry">
            <mxPoint x="300" y="370" as="sourcePoint" />
            <mxPoint x="350" y="570" as="targetPoint" />
          </mxGeometry>
        </mxCell>
        <mxCell id="ROxHBCijPqA-K5Wzq0nR-9" value="CR_2_2_1_6" style="edgeLabel;html=1;align=center;verticalAlign=middle;resizable=0;points=[];" vertex="1" connectable="0" parent="ROxHBCijPqA-K5Wzq0nR-5">
          <mxGeometry x="0.416" relative="1" as="geometry">
            <mxPoint x="-25" y="-62" as="offset" />
          </mxGeometry>
        </mxCell>
        <mxCell id="ROxHBCijPqA-K5Wzq0nR-7" value="" style="shape=flexArrow;endArrow=classic;html=1;rounded=0;fillColor=#FF0000;strokeColor=none;fillStyle=solid;fontColor=default;labelBackgroundColor=default;gradientColor=none;opacity=40;" edge="1" parent="1">
          <mxGeometry width="50" height="50" relative="1" as="geometry">
            <mxPoint x="490" y="470" as="sourcePoint" />
            <mxPoint x="690" y="590" as="targetPoint" />
          </mxGeometry>
        </mxCell>
        <mxCell id="ROxHBCijPqA-K5Wzq0nR-10" value="CR_4_4_6_6" style="edgeLabel;html=1;align=center;verticalAlign=middle;resizable=0;points=[];" vertex="1" connectable="0" parent="ROxHBCijPqA-K5Wzq0nR-7">
          <mxGeometry x="0.3265" y="1" relative="1" as="geometry">
            <mxPoint as="offset" />
          </mxGeometry>
        </mxCell>
        <mxCell id="ROxHBCijPqA-K5Wzq0nR-11" value="" style="shape=flexArrow;endArrow=classic;html=1;rounded=0;fillColor=#1ba1e2;strokeColor=#006EAF;fillStyle=solid;opacity=40;" edge="1" parent="1">
          <mxGeometry width="50" height="50" relative="1" as="geometry">
            <mxPoint x="360" y="250" as="sourcePoint" />
            <mxPoint x="360" y="560" as="targetPoint" />
          </mxGeometry>
        </mxCell>
        <mxCell id="ROxHBCijPqA-K5Wzq0nR-13" value="NOT CB_4_0_1_6" style="edgeLabel;html=1;align=center;verticalAlign=middle;resizable=0;points=[];" vertex="1" connectable="0" parent="ROxHBCijPqA-K5Wzq0nR-11">
          <mxGeometry x="-0.1595" y="-3" relative="1" as="geometry">
            <mxPoint x="13" y="30" as="offset" />
          </mxGeometry>
        </mxCell>
        <mxCell id="ROxHBCijPqA-K5Wzq0nR-15" value="" style="shape=flexArrow;endArrow=classic;html=1;rounded=0;fillColor=#1ba1e2;strokeColor=#006EAF;fillStyle=solid;opacity=40;" edge="1" parent="1">
          <mxGeometry width="50" height="50" relative="1" as="geometry">
            <mxPoint x="140" y="300" as="sourcePoint" />
            <mxPoint x="460" y="300" as="targetPoint" />
          </mxGeometry>
        </mxCell>
        <mxCell id="ROxHBCijPqA-K5Wzq0nR-17" value="NOT CB_0_1_5_1" style="edgeLabel;html=1;align=center;verticalAlign=middle;resizable=0;points=[];" vertex="1" connectable="0" parent="ROxHBCijPqA-K5Wzq0nR-15">
          <mxGeometry x="-0.3515" y="-1" relative="1" as="geometry">
            <mxPoint as="offset" />
          </mxGeometry>
        </mxCell>
        <mxCell id="ROxHBCijPqA-K5Wzq0nR-18" value="" style="shape=flexArrow;endArrow=classic;html=1;rounded=0;fillColor=#1ba1e2;strokeColor=#006EAF;fillStyle=solid;opacity=40;" edge="1" parent="1">
          <mxGeometry width="50" height="50" relative="1" as="geometry">
            <mxPoint x="260" y="520" as="sourcePoint" />
            <mxPoint x="680" y="590" as="targetPoint" />
          </mxGeometry>
        </mxCell>
        <mxCell id="ROxHBCijPqA-K5Wzq0nR-20" value="NOT CB_0_5_6_6" style="edgeLabel;html=1;align=center;verticalAlign=middle;resizable=0;points=[];" vertex="1" connectable="0" parent="ROxHBCijPqA-K5Wzq0nR-18">
          <mxGeometry x="0.0208" y="-2" relative="1" as="geometry">
            <mxPoint as="offset" />
          </mxGeometry>
        </mxCell>
      </root>
    </mxGraphModel>
  </diagram>
</mxfile>
